RedHatMono-Light.ufo
<glyph name="numbersign" format="2">
  <advance width="600"/>
  <unicode hex="0023"/>
  <outline>
    <contour>
      <point x="52" y="0" type="line"/>
      <point x="99" y="0" type="line"/>
      <point x="177" y="228" type="line"/>
      <point x="340" y="228" type="line"/>
      <point x="262" y="0" type="line"/>
      <point x="309" y="0" type="line"/>
      <point x="387" y="228" type="line"/>
      <point x="525" y="228" type="line"/>
      <point x="525" y="272" type="line"/>
      <point x="402" y="272" type="line"/>
      <point x="456" y="428" type="line"/>
      <point x="573" y="428" type="line"/>
      <point x="573" y="472" type="line"/>
      <point x="471" y="472" type="line"/>
      <point x="549" y="700" type="line"/>
      <point x="502" y="700" type="line"/>
      <point x="424" y="472" type="line"/>
      <point x="261" y="472" type="line"/>
      <point x="339" y="700" type="line"/>
      <point x="292" y="700" type="line"/>
      <point x="214" y="472" type="line"/>
      <point x="75" y="472" type="line"/>
      <point x="75" y="428" type="line"/>
      <point x="199" y="428" type="line"/>
      <point x="145" y="272" type="line"/>
      <point x="27" y="272" type="line"/>
      <point x="27" y="228" type="line"/>
      <point x="130" y="228" type="line"/>
    </contour>
    <contour>
      <point x="192" y="272" type="line"/>
      <point x="246" y="428" type="line"/>
      <point x="409" y="428" type="line"/>
      <point x="355" y="272" type="line"/>
    </contour>
  </outline>
</glyph>
<glyph name="percent" format="2">
  <advance width="600"/>
  <unicode hex="0025"/>
  <guideline x="453" y="141" angle="0.0" identifier="IhNJwpyUzj"/>
  <outline>
    <contour>
      <point x="151" y="413" type="curve" smooth="yes"/>
      <point x="221" y="413"/>
      <point x="269" y="472"/>
      <point x="269" y="559" type="curve" smooth="yes"/>
      <point x="269" y="646"/>
      <point x="221" y="705"/>
      <point x="151" y="705" type="curve" smooth="yes"/>
      <point x="81" y="705"/>
      <point x="33" y="646"/>
      <point x="33" y="559" type="curve" smooth="yes"/>
      <point x="33" y="472"/>
      <point x="81" y="413"/>
    </contour>
    <contour>
      <point x="151" y="451" type="curve" smooth="yes"/>
      <point x="104" y="451"/>
      <point x="73" y="492"/>
      <point x="73" y="559" type="curve" smooth="yes"/>
      <point x="73" y="626"/>
      <point x="104" y="667"/>
      <point x="151" y="667" type="curve" smooth="yes"/>
      <point x="198" y="667"/>
      <point x="229" y="626"/>
      <point x="229" y="559" type="curve" smooth="yes"/>
      <point x="229" y="492"/>
      <point x="198" y="451"/>
    </contour>
    <contour>
      <point x="449" y="-5" type="curve" smooth="yes"/>
      <point x="519" y="-5"/>
      <point x="567" y="54"/>
      <point x="567" y="141" type="curve" smooth="yes"/>
      <point x="567" y="228"/>
      <point x="519" y="287"/>
      <point x="449" y="287" type="curve" smooth="yes"/>
      <point x="379" y="287"/>
      <point x="331" y="228"/>
      <point x="331" y="141" type="curve" smooth="yes"/>
      <point x="331" y="54"/>
      <point x="379" y="-5"/>
    </contour>
    <contour>
      <point x="449" y="33" type="curve" smooth="yes"/>
      <point x="402" y="33"/>
      <point x="371" y="74"/>
      <point x="371" y="141" type="curve" smooth="yes"/>
      <point x="371" y="208"/>
      <point x="402" y="249"/>
      <point x="449" y="249" type="curve" smooth="yes"/>
      <point x="496" y="249"/>
      <point x="527" y="208"/>
      <point x="527" y="141" type="curve" smooth="yes"/>
      <point x="527" y="74"/>
      <point x="496" y="33"/>
    </contour>
    <component base="fraction" xOffset="14"/>
  </outline>
</glyph>
<glyph name="parenleft" format="2">
  <advance width="600"/>
  <unicode hex="0028"/>
  <outline>
    <contour>
      <point x="454" y="-221" type="curve"/>
      <point x="476" y="-176" type="line"/>
      <point x="315" y="-102"/>
      <point x="223" y="51"/>
      <point x="223" y="247" type="curve" smooth="yes"/>
      <point x="223" y="442"/>
      <point x="315" y="597"/>
      <point x="476" y="670" type="curve"/>
      <point x="454" y="715" type="line"/>
      <point x="291" y="639"/>
      <point x="171" y="463"/>
      <point x="171" y="247" type="curve" smooth="yes"/>
      <point x="171" y="31"/>
      <point x="291" y="-146"/>
    </contour>
  </outline>
</glyph>
<glyph name="asterisk" format="2">
  <advance width="600"/>
  <unicode hex="002A"/>
  <outline>
    <contour>
      <point x="280" y="350" type="line"/>
      <point x="320" y="350" type="line"/>
      <point x="318" y="496" type="line"/>
      <point x="435" y="420" type="line"/>
      <point x="457" y="453" type="line"/>
      <point x="335" y="530" type="line"/>
      <point x="453" y="604" type="line"/>
      <point x="429" y="637" type="line"/>
      <point x="318" y="565" type="line"/>
      <point x="320" y="700" type="line"/>
      <point x="280" y="700" type="line"/>
      <point x="282" y="564" type="line"/>
      <point x="169" y="637" type="line"/>
      <point x="148" y="604" type="line"/>
      <point x="265" y="531" type="line"/>
      <point x="142" y="454" type="line"/>
      <point x="165" y="420" type="line"/>
      <point x="282" y="496" type="line"/>
    </contour>
  </outline>
</glyph>
<glyph name="plus" format="2">
  <advance width="600"/>
  <unicode hex="002B"/>
  <guideline x="292" y="352" angle="0.0" identifier="7YV64J0Qv5"/>
  <outline>
    <contour>
      <point x="277" y="152" type="line"/>
      <point x="323" y="152" type="line"/>
      <point x="323" y="334" type="line"/>
      <point x="490" y="334" type="line"/>
      <point x="490" y="379" type="line"/>
      <point x="323" y="379" type="line"/>
      <point x="323" y="561" type="line"/>
      <point x="277" y="561" type="line"/>
      <point x="277" y="379" type="line"/>
      <point x="110" y="379" type="line"/>
      <point x="110" y="334" type="line"/>
      <point x="277" y="334" type="line"/>
    </contour>
  </outline>
</glyph>
<glyph name="comma" format="2">
  <advance width="600"/>
  <unicode hex="002C"/>
  <outline>
    <contour>
      <point x="213" y="-152" type="line"/>
      <point x="255" y="-152" type="line"/>
      <point x="336" y="60" type="line"/>
      <point x="266" y="60" type="line"/>
    </contour>
  </outline>
</glyph>
<glyph name="period" format="2">
  <advance width="600"/>
  <unicode hex="002E"/>
  <outline>
    <contour>
      <point x="300" y="-8" type="curve" smooth="yes"/>
      <point x="329" y="-8"/>
      <point x="353" y="16"/>
      <point x="353" y="46" type="curve" smooth="yes"/>
      <point x="353" y="76"/>
      <point x="329" y="100"/>
      <point x="300" y="100" type="curve" smooth="yes"/>
      <point x="271" y="100"/>
      <point x="247" y="76"/>
      <point x="247" y="46" type="curve" smooth="yes"/>
      <point x="247" y="16"/>
      <point x="271" y="-8"/>
    </contour>
  </outline>
</glyph>
<glyph name="one" format="2">
  <advance width="600"/>
  <unicode hex="0031"/>
  <guideline x="93" y="259" angle="270.0" identifier="zWHZDg1UEt"/>
  <outline>
    <contour>
      <point x="92" y="0" type="line"/>
      <point x="530" y="0" type="line"/>
      <point x="530" y="45" type="line"/>
      <point x="330" y="45" type="line"/>
      <point x="330" y="700" type="line"/>
      <point x="300" y="700" type="line"/>
      <point x="92" y="612" type="line"/>
      <point x="92" y="562" type="line"/>
      <point x="280" y="642" type="line"/>
      <point x="280" y="45" type="line"/>
      <point x="92" y="45" type="line"/>
    </contour>
  </outline>
</glyph>
<glyph name="six" format="2">
  <advance width="600"/>
  <unicode hex="0036"/>
  <outline>
    <contour>
      <point x="324" y="-11" type="curve" smooth="yes"/>
      <point x="457" y="-11"/>
      <point x="555" y="85"/>
      <point x="555" y="218" type="curve" smooth="yes"/>
      <point x="555" y="345"/>
      <point x="457" y="438"/>
      <point x="321" y="438" type="curve" smooth="yes"/>
      <point x="243" y="438"/>
      <point x="165" y="399"/>
      <point x="110" y="332" type="curve"/>
      <point x="114" y="540"/>
      <point x="209" y="666"/>
      <point x="362" y="666" type="curve" smooth="yes"/>
      <point x="405" y="666"/>
      <point x="454" y="651"/>
      <point x="495" y="630" type="curve"/>
      <point x="517" y="672" type="line"/>
      <point x="473" y="697"/>
      <point x="419" y="711"/>
      <point x="366" y="711" type="curve" smooth="yes"/>
      <point x="180" y="711"/>
      <point x="57" y="556"/>
      <point x="57" y="320" type="curve" smooth="yes"/>
      <point x="57" y="126"/>
      <point x="168" y="-11"/>
    </contour>
    <contour>
      <point x="316" y="394" type="curve" smooth="yes"/>
      <point x="426" y="394"/>
      <point x="503" y="319"/>
      <point x="503" y="216" type="curve" smooth="yes"/>
      <point x="503" y="112"/>
      <point x="427" y="34"/>
      <point x="325" y="34" type="curve" smooth="yes"/>
      <point x="206" y="34"/>
      <point x="123" y="133"/>
      <point x="111" y="282" type="curve"/>
      <point x="164" y="351"/>
      <point x="240" y="394"/>
    </contour>
  </outline>
</glyph>
<glyph name="B" format="2">
  <advance width="600"/>
  <unicode hex="0042"/>
  <outline>
    <contour>
      <point x="101" y="0" type="line"/>
      <point x="314" y="0" type="line" smooth="yes"/>
      <point x="451" y="0"/>
      <point x="539" y="76"/>
      <point x="539" y="193" type="curve" smooth="yes"/>
      <point x="539" y="285"/>
      <point x="477" y="349"/>
      <point x="375" y="366" type="curve"/>
      <point x="460" y="386"/>
      <point x="510" y="443"/>
      <point x="510" y="525" type="curve" smooth="yes"/>
      <point x="510" y="633"/>
      <point x="431" y="700"/>
      <point x="304" y="700" type="curve" smooth="yes"/>
      <point x="101" y="700" type="line"/>
    </contour>
    <contour>
      <point x="153" y="388" type="line"/>
      <point x="153" y="653" type="line"/>
      <point x="302" y="653" type="line" smooth="yes"/>
      <point x="397" y="653"/>
      <point x="459" y="601"/>
      <point x="459" y="520" type="curve" smooth="yes"/>
      <point x="459" y="440"/>
      <point x="398" y="388"/>
      <point x="302" y="388" type="curve" smooth="yes"/>
    </contour>
    <contour>
      <point x="153" y="47" type="line"/>
      <point x="153" y="342" type="line"/>
      <point x="310" y="342" type="line" smooth="yes"/>
      <point x="418" y="342"/>
      <point x="487" y="285"/>
      <point x="487" y="195" type="curve" smooth="yes"/>
      <point x="487" y="106"/>
      <point x="417" y="47"/>
      <point x="310" y="47" type="curve" smooth="yes"/>
    </contour>
  </outline>
</glyph>
<glyph name="C" format="2">
  <advance width="600"/>
  <unicode hex="0043"/>
  <anchor x="302" y="700" name="top"/>
  <anchor x="301" y="0" name="bottom"/>
  <outline>
    <contour>
      <point x="302" y="-11" type="curve" smooth="yes"/>
      <point x="423" y="-11"/>
      <point x="514" y="67"/>
      <point x="554" y="197" type="curve"/>
      <point x="503" y="214" type="line"/>
      <point x="472" y="100"/>
      <point x="392" y="37"/>
      <point x="302" y="37" type="curve" smooth="yes"/>
      <point x="184" y="37"/>
      <point x="96" y="155"/>
      <point x="96" y="350" type="curve" smooth="yes"/>
      <point x="96" y="545"/>
      <point x="184" y="663"/>
      <point x="302" y="663" type="curve" smooth="yes"/>
      <point x="392" y="663"/>
      <point x="472" y="600"/>
      <point x="503" y="486" type="curve"/>
      <point x="554" y="503" type="line"/>
      <point x="514" y="633"/>
      <point x="423" y="711"/>
      <point x="302" y="711" type="curve" smooth="yes"/>
      <point x="164" y="711"/>
      <point x="44" y="582"/>
      <point x="44" y="350" type="curve" smooth="yes"/>
      <point x="44" y="118"/>
      <point x="164" y="-11"/>
    </contour>
  </outline>
</glyph>
<glyph name="G" format="2">
  <advance width="600"/>
  <unicode hex="0047"/>
  <anchor x="308" y="700" name="top"/>
  <anchor x="309" y="0" name="bottom"/>
  <outline>
    <contour>
      <point x="311" y="-11" type="curve" smooth="yes"/>
      <point x="463" y="-11"/>
      <point x="565" y="114"/>
      <point x="565" y="330" type="curve" smooth="yes"/>
      <point x="565" y="356" type="line"/>
      <point x="335" y="356" type="line"/>
      <point x="335" y="309" type="line"/>
      <point x="509" y="309" type="line"/>
      <point x="503" y="147"/>
      <point x="429" y="37"/>
      <point x="309" y="37" type="curve" smooth="yes"/>
      <point x="187" y="37"/>
      <point x="96" y="157"/>
      <point x="96" y="350" type="curve" smooth="yes"/>
      <point x="96" y="543"/>
      <point x="187" y="663"/>
      <point x="303" y="663" type="curve" smooth="yes"/>
      <point x="396" y="663"/>
      <point x="477" y="595"/>
      <point x="506" y="474" type="curve"/>
      <point x="557" y="489" type="line"/>
      <point x="521" y="628"/>
      <point x="430" y="711"/>
      <point x="305" y="711" type="curve" smooth="yes"/>
      <point x="168" y="711"/>
      <point x="44" y="582"/>
      <point x="44" y="350" type="curve" smooth="yes"/>
      <point x="44" y="118"/>
      <point x="168" y="-11"/>
    </contour>
  </outline>
</glyph>
<glyph name="H" format="2">
  <advance width="600"/>
  <unicode hex="0048"/>
  <anchor x="300" y="700" name="top"/>
  <outline>
    <contour>
      <point x="79" y="0" type="line"/>
      <point x="131" y="0" type="line"/>
      <point x="131" y="329" type="line"/>
      <point x="469" y="329" type="line"/>
      <point x="469" y="0" type="line"/>
      <point x="521" y="0" type="line"/>
      <point x="521" y="700" type="line"/>
      <point x="469" y="700" type="line"/>
      <point x="469" y="376" type="line"/>
      <point x="131" y="376" type="line"/>
      <point x="131" y="700" type="line"/>
      <point x="79" y="700" type="line"/>
    </contour>
  </outline>
</glyph>
<glyph name="J" format="2">
  <advance width="600"/>
  <unicode hex="004A"/>
  <anchor x="479" y="700" name="top"/>
  <outline>
    <contour>
      <point x="265" y="-11" type="curve" smooth="yes"/>
      <point x="412" y="-11"/>
      <point x="505" y="96"/>
      <point x="505" y="268" type="curve" smooth="yes"/>
      <point x="505" y="700" type="line"/>
      <point x="453" y="700" type="line"/>
      <point x="453" y="269" type="line" smooth="yes"/>
      <point x="453" y="127"/>
      <point x="380" y="37"/>
      <point x="268" y="37" type="curve" smooth="yes"/>
      <point x="177" y="37"/>
      <point x="114" y="86"/>
      <point x="78" y="179" type="curve"/>
      <point x="32" y="159" type="line"/>
      <point x="70" y="53"/>
      <point x="156" y="-11"/>
    </contour>
  </outline>
</glyph>
<glyph name="L" format="2">
  <advance width="600"/>
  <unicode hex="004C"/>
  <guideline x="138" y="700" angle="0.0" color="0.999,0.001,0.001,0.999" identifier="w1IJXhW3l4"/>
  <anchor x="140" y="700" name="top"/>
  <anchor x="319" y="0" name="bottom"/>
  <outline>
    <contour>
      <point x="112" y="0" type="line"/>
      <point x="535" y="0" type="line"/>
      <point x="535" y="47" type="line"/>
      <point x="164" y="47" type="line"/>
      <point x="164" y="700" type="line"/>
      <point x="112" y="700" type="line"/>
    </contour>
  </outline>
</glyph>
<glyph name="M" format="2">
  <advance width="600"/>
  <unicode hex="004D"/>
  <outline>
    <contour>
      <point x="64" y="0" type="line"/>
      <point x="113" y="0" type="line"/>
      <point x="113" y="644" type="line"/>
      <point x="299" y="221" type="line"/>
      <point x="487" y="645" type="line"/>
      <point x="487" y="0" type="line"/>
      <point x="536" y="0" type="line"/>
      <point x="536" y="700" type="line"/>
      <point x="464" y="700" type="line"/>
      <point x="300" y="337" type="line"/>
      <point x="136" y="700" type="line"/>
      <point x="64" y="700" type="line"/>
    </contour>
  </outline>
</glyph>
<glyph name="N" format="2">
  <advance width="600"/>
  <unicode hex="004E"/>
  <anchor x="300" y="700" name="top"/>
  <anchor x="300" y="0" name="bottom"/>
  <outline>
    <contour>
      <point x="84" y="0" type="line"/>
      <point x="133" y="0" type="line"/>
      <point x="133" y="633" type="line"/>
      <point x="458" y="0" type="line"/>
      <point x="516" y="0" type="line"/>
      <point x="516" y="700" type="line"/>
      <point x="467" y="700" type="line"/>
      <point x="467" y="86" type="line"/>
      <point x="152" y="700" type="line"/>
      <point x="84" y="700" type="line"/>
    </contour>
  </outline>
</glyph>
<glyph name="R" format="2">
  <advance width="600"/>
  <unicode hex="0052"/>
  <anchor x="300" y="700" name="top"/>
  <anchor x="309" y="0" name="bottom"/>
  <outline>
    <contour>
      <point x="114" y="0" type="line"/>
      <point x="166" y="0" type="line"/>
      <point x="166" y="308" type="line"/>
      <point x="330" y="308" type="line"/>
      <point x="485" y="0" type="line"/>
      <point x="543" y="0" type="line"/>
      <point x="384" y="315" type="line"/>
      <point x="477" y="338"/>
      <point x="535" y="408"/>
      <point x="535" y="504" type="curve" smooth="yes"/>
      <point x="535" y="621"/>
      <point x="449" y="700"/>
      <point x="318" y="700" type="curve" smooth="yes"/>
      <point x="114" y="700" type="line"/>
    </contour>
    <contour>
      <point x="166" y="355" type="line"/>
      <point x="166" y="653" type="line"/>
      <point x="315" y="653" type="line" smooth="yes"/>
      <point x="417" y="653"/>
      <point x="483" y="593"/>
      <point x="483" y="504" type="curve" smooth="yes"/>
      <point x="483" y="415"/>
      <point x="417" y="355"/>
      <point x="315" y="355" type="curve" smooth="yes"/>
    </contour>
  </outline>
</glyph>
<glyph name="S" format="2">
  <advance width="600"/>
  <unicode hex="0053"/>
  <anchor x="293" y="700" name="top"/>
  <anchor x="305" y="0" name="bottom"/>
  <outline>
    <contour>
      <point x="313" y="-11" type="curve" smooth="yes"/>
      <point x="440" y="-11"/>
      <point x="538" y="71"/>
      <point x="538" y="184" type="curve" smooth="yes"/>
      <point x="538" y="456"/>
      <point x="140" y="316"/>
      <point x="140" y="535" type="curve" smooth="yes"/>
      <point x="140" y="613"/>
      <point x="205" y="663"/>
      <point x="296" y="663" type="curve" smooth="yes"/>
      <point x="368" y="663"/>
      <point x="440" y="636"/>
      <point x="504" y="588" type="curve"/>
      <point x="533" y="630" type="line"/>
      <point x="450" y="686"/>
      <point x="382" y="711"/>
      <point x="292" y="711" type="curve" smooth="yes"/>
      <point x="174" y="711"/>
      <point x="88" y="642"/>
      <point x="88" y="533" type="curve" smooth="yes"/>
      <point x="88" y="270"/>
      <point x="486" y="401"/>
      <point x="486" y="186" type="curve" smooth="yes"/>
      <point x="486" y="100"/>
      <point x="410" y="37"/>
      <point x="314" y="37" type="curve" smooth="yes"/>
      <point x="231" y="37"/>
      <point x="166" y="66"/>
      <point x="97" y="134" type="curve"/>
      <point x="64" y="96" type="line"/>
      <point x="139" y="24"/>
      <point x="217" y="-11"/>
    </contour>
  </outline>
</glyph>
<glyph name="W" format="2">
  <advance width="600"/>
  <unicode hex="0057"/>
  <guideline x="472" y="120" angle="0.0" identifier="IlOupJizjO"/>
  <anchor x="300" y="700" name="top"/>
  <outline>
    <contour>
      <point x="116" y="0" type="line"/>
      <point x="169" y="0" type="line"/>
      <point x="300" y="618" type="line"/>
      <point x="431" y="0" type="line"/>
      <point x="484" y="0" type="line"/>
      <point x="570" y="700" type="line"/>
      <point x="521" y="700" type="line"/>
      <point x="452" y="120" type="line"/>
      <point x="330" y="700" type="line"/>
      <point x="272" y="700" type="line"/>
      <point x="150" y="120" type="line"/>
      <point x="82" y="700" type="line"/>
      <point x="30" y="700" type="line"/>
    </contour>
  </outline>
</glyph>
<glyph name="c" format="2">
  <advance width="600"/>
  <unicode hex="0063"/>
  <anchor x="301" y="481" name="top"/>
  <anchor x="303" y="0" name="bottom"/>
  <outline>
    <contour>
      <point x="305" y="-10" type="curve" smooth="yes"/>
      <point x="390" y="-10"/>
      <point x="464" y="32"/>
      <point x="505" y="98" type="curve"/>
      <point x="463" y="121" type="line"/>
      <point x="430" y="69"/>
      <point x="372" y="36"/>
      <point x="305" y="36" type="curve" smooth="yes"/>
      <point x="199" y="36"/>
      <point x="120" y="123"/>
      <point x="120" y="240" type="curve" smooth="yes"/>
      <point x="120" y="357"/>
      <point x="199" y="443"/>
      <point x="305" y="443" type="curve" smooth="yes"/>
      <point x="372" y="443"/>
      <point x="430" y="410"/>
      <point x="463" y="358" type="curve"/>
      <point x="505" y="381" type="line"/>
      <point x="464" y="447"/>
      <point x="390" y="489"/>
      <point x="305" y="489" type="curve" smooth="yes"/>
      <point x="170" y="489"/>
      <point x="69" y="380"/>
      <point x="69" y="239" type="curve" smooth="yes"/>
      <point x="69" y="98"/>
      <point x="170" y="-10"/>
    </contour>
  </outline>
</glyph>
<glyph name="d" format="2">
  <advance width="600"/>
  <unicode hex="0064"/>
  <guideline x="444" y="407" angle="270.0" identifier="zaRFPX4Ifm"/>
  <outline>
    <contour>
      <point x="290" y="-8" type="curve" smooth="yes"/>
      <point x="354" y="-8"/>
      <point x="411" y="16"/>
      <point x="451" y="64" type="curve"/>
      <point x="451" y="0" type="line"/>
      <point x="501" y="0" type="line"/>
      <point x="501" y="737" type="line"/>
      <point x="451" y="725" type="line"/>
      <point x="451" y="412" type="line"/>
      <point x="411" y="461"/>
      <point x="355" y="487"/>
      <point x="288" y="487" type="curve" smooth="yes"/>
      <point x="159" y="487"/>
      <point x="60" y="379"/>
      <point x="60" y="240" type="curve" smooth="yes"/>
      <point x="60" y="100"/>
      <point x="160" y="-8"/>
    </contour>
    <contour>
      <point x="298" y="38" type="curve" smooth="yes"/>
      <point x="192" y="38"/>
      <point x="110" y="124"/>
      <point x="110" y="239" type="curve" smooth="yes"/>
      <point x="110" y="354"/>
      <point x="192" y="441"/>
      <point x="298" y="441" type="curve" smooth="yes"/>
      <point x="363" y="441"/>
      <point x="419" y="412"/>
      <point x="451" y="363" type="curve"/>
      <point x="451" y="112" type="line"/>
      <point x="418" y="65"/>
      <point x="360" y="38"/>
    </contour>
  </outline>
</glyph>
<glyph name="g" format="2">
  <advance width="600"/>
  <unicode hex="0067"/>
  <anchor x="298" y="481" name="top"/>
  <outline>
    <contour>
      <point x="308" y="-219" type="curve" smooth="yes"/>
      <point x="432" y="-219"/>
      <point x="501" y="-155"/>
      <point x="501" y="-39" type="curve" smooth="yes"/>
      <point x="501" y="481" type="line"/>
      <point x="451" y="481" type="line"/>
      <point x="451" y="412" type="line"/>
      <point x="411" y="461"/>
      <point x="355" y="487"/>
      <point x="288" y="487" type="curve"/>
      <point x="159" y="487"/>
      <point x="60" y="379"/>
      <point x="60" y="240" type="curve" smooth="yes"/>
      <point x="60" y="100"/>
      <point x="160" y="-8"/>
      <point x="290" y="-8" type="curve" smooth="yes"/>
      <point x="354" y="-8"/>
      <point x="411" y="16"/>
      <point x="451" y="64" type="curve"/>
      <point x="451" y="-41" type="line" smooth="yes"/>
      <point x="451" y="-128"/>
      <point x="401" y="-173"/>
      <point x="306" y="-173" type="curve" smooth="yes"/>
      <point x="256" y="-173"/>
      <point x="211" y="-159"/>
      <point x="150" y="-127" type="curve"/>
      <point x="124" y="-167" type="line"/>
      <point x="179" y="-200"/>
      <point x="245" y="-219"/>
    </contour>
    <contour>
      <point x="298" y="38" type="curve" smooth="yes"/>
      <point x="192" y="38"/>
      <point x="110" y="124"/>
      <point x="110" y="239" type="curve" smooth="yes"/>
      <point x="110" y="354"/>
      <point x="192" y="441"/>
      <point x="298" y="441" type="curve"/>
      <point x="363" y="441"/>
      <point x="419" y="412"/>
      <point x="451" y="363" type="curve"/>
      <point x="451" y="112" type="line"/>
      <point x="418" y="65"/>
      <point x="360" y="38"/>
    </contour>
  </outline>
</glyph>
<glyph name="i" format="2">
  <advance width="600"/>
  <unicode hex="0069"/>
  <note>
Version created Wed Nov 11 16:21:20 2020
</note>
  <anchor x="293" y="481" name="top"/>
  <anchor x="469" y="0" name="bottom"/>
  <outline>
    <contour>
      <point x="291" y="602" type="curve" smooth="yes"/>
      <point x="321" y="602"/>
      <point x="344" y="627"/>
      <point x="344" y="657" type="curve" smooth="yes"/>
      <point x="344" y="687"/>
      <point x="321" y="712"/>
      <point x="291" y="712" type="curve" smooth="yes"/>
      <point x="261" y="712"/>
      <point x="238" y="687"/>
      <point x="238" y="657" type="curve" smooth="yes"/>
      <point x="238" y="627"/>
      <point x="261" y="602"/>
    </contour>
    <contour>
      <point x="411" y="-10" type="curve" smooth="yes"/>
      <point x="440" y="-10"/>
      <point x="468" y="-6"/>
      <point x="505" y="5" type="curve"/>
      <point x="505" y="50" type="line"/>
      <point x="463" y="38"/>
      <point x="438" y="35"/>
      <point x="411" y="35" type="curve" smooth="yes"/>
      <point x="350" y="35"/>
      <point x="316" y="64"/>
      <point x="316" y="121" type="curve" smooth="yes"/>
      <point x="316" y="481" type="line"/>
      <point x="85" y="481" type="line"/>
      <point x="85" y="438" type="line"/>
      <point x="266" y="438" type="line"/>
      <point x="266" y="119" type="line" smooth="yes"/>
      <point x="266" y="37"/>
      <point x="320" y="-10"/>
    </contour>
  </outline>
</glyph>
<glyph name="j" format="2">
  <advance width="600"/>
  <unicode hex="006A"/>
  <outline>
    <contour>
      <point x="382" y="602" type="curve" smooth="yes"/>
      <point x="412" y="602"/>
      <point x="435" y="627"/>
      <point x="435" y="657" type="curve" smooth="yes"/>
      <point x="435" y="687"/>
      <point x="412" y="712"/>
      <point x="382" y="712" type="curve" smooth="yes"/>
      <point x="352" y="712"/>
      <point x="329" y="687"/>
      <point x="329" y="657" type="curve" smooth="yes"/>
      <point x="329" y="627"/>
      <point x="352" y="602"/>
    </contour>
    <contour>
      <point x="237" y="-219" type="curve" smooth="yes"/>
      <point x="349" y="-219"/>
      <point x="408" y="-170"/>
      <point x="408" y="-76" type="curve" smooth="yes"/>
      <point x="408" y="481" type="line"/>
      <point x="103" y="481" type="line"/>
      <point x="103" y="438" type="line"/>
      <point x="358" y="438" type="line"/>
      <point x="358" y="-65" type="line" smooth="yes"/>
      <point x="358" y="-141"/>
      <point x="318" y="-173"/>
      <point x="253" y="-173" type="curve" smooth="yes"/>
      <point x="195" y="-173"/>
      <point x="158" y="-165"/>
      <point x="103" y="-141" type="curve"/>
      <point x="103" y="-191" type="line"/>
      <point x="150" y="-208"/>
      <point x="193" y="-219"/>
    </contour>
  </outline>
</glyph>
<glyph name="k" format="2">
  <advance width="600"/>
  <unicode hex="006B"/>
  <anchor x="308" y="0" name="bottom"/>
  <outline>
    <contour>
      <point x="127" y="0" type="line"/>
      <point x="177" y="0" type="line"/>
      <point x="177" y="238" type="line"/>
      <point x="460" y="0" type="line"/>
      <point x="534" y="0" type="line"/>
      <point x="235" y="247" type="line"/>
      <point x="524" y="481" type="line"/>
      <point x="456" y="481" type="line"/>
      <point x="177" y="254" type="line"/>
      <point x="177" y="737" type="line"/>
      <point x="127" y="725" type="line"/>
    </contour>
  </outline>
</glyph>
<glyph name="m" format="2">
  <advance width="600"/>
  <unicode hex="006D"/>
  <guideline x="74" y="214" angle="0.0" identifier="wYGR65QraW"/>
  <outline>
    <contour>
      <point x="77" y="0" type="line"/>
      <point x="126" y="0" type="line"/>
      <point x="126" y="402" type="line"/>
      <point x="147" y="439"/>
      <point x="172" y="449"/>
      <point x="200" y="449" type="curve"/>
      <point x="251" y="449"/>
      <point x="280" y="411"/>
      <point x="280" y="348" type="curve"/>
      <point x="280" y="0" type="line"/>
      <point x="329" y="0" type="line"/>
      <point x="329" y="362" type="line" smooth="yes"/>
      <point x="329" y="375"/>
      <point x="328" y="387"/>
      <point x="325" y="398" type="curve"/>
      <point x="346" y="439"/>
      <point x="372" y="449"/>
      <point x="401" y="449" type="curve"/>
      <point x="452" y="449"/>
      <point x="479" y="411"/>
      <point x="479" y="348" type="curve"/>
      <point x="479" y="0" type="line"/>
      <point x="528" y="0" type="line"/>
      <point x="528" y="359" type="line" smooth="yes"/>
      <point x="528" y="436"/>
      <point x="483" y="489"/>
      <point x="419" y="489" type="curve"/>
      <point x="373" y="489"/>
      <point x="339" y="472"/>
      <point x="312" y="432" type="curve"/>
      <point x="293" y="467"/>
      <point x="259" y="489"/>
      <point x="217" y="489" type="curve"/>
      <point x="179" y="489"/>
      <point x="150" y="475"/>
      <point x="126" y="440" type="curve"/>
      <point x="126" y="481" type="line"/>
      <point x="77" y="481" type="line"/>
    </contour>
  </outline>
</glyph>
<glyph name="o" format="2">
  <advance width="600"/>
  <unicode hex="006F"/>
  <anchor x="300" y="481" name="top"/>
  <outline>
    <contour>
      <point x="300" y="-10" type="curve" smooth="yes"/>
      <point x="430" y="-10"/>
      <point x="530" y="98"/>
      <point x="530" y="240" type="curve" smooth="yes"/>
      <point x="530" y="381"/>
      <point x="430" y="489"/>
      <point x="300" y="489" type="curve" smooth="yes"/>
      <point x="170" y="489"/>
      <point x="70" y="381"/>
      <point x="70" y="240" type="curve" smooth="yes"/>
      <point x="70" y="98"/>
      <point x="170" y="-10"/>
    </contour>
    <contour>
      <point x="300" y="36" type="curve" smooth="yes"/>
      <point x="197" y="36"/>
      <point x="120" y="123"/>
      <point x="120" y="240" type="curve" smooth="yes"/>
      <point x="120" y="356"/>
      <point x="197" y="443"/>
      <point x="300" y="443" type="curve" smooth="yes"/>
      <point x="403" y="443"/>
      <point x="480" y="356"/>
      <point x="480" y="240" type="curve" smooth="yes"/>
      <point x="480" y="123"/>
      <point x="403" y="36"/>
    </contour>
  </outline>
</glyph>
<glyph name="r" format="2">
  <advance width="600"/>
  <unicode hex="0072"/>
  <guideline x="267" identifier="QxelpK6HVh"/>
  <anchor x="366" y="481" name="top"/>
  <anchor x="267" y="0" name="bottom"/>
  <outline>
    <contour>
      <point x="102" y="0" type="line"/>
      <point x="440" y="0" type="line"/>
      <point x="440" y="43" type="line"/>
      <point x="292" y="43" type="line"/>
      <point x="292" y="327" type="line"/>
      <point x="321" y="402"/>
      <point x="383" y="443"/>
      <point x="457" y="443" type="curve" smooth="yes"/>
      <point x="485" y="443"/>
      <point x="513" y="437"/>
      <point x="548" y="426" type="curve"/>
      <point x="548" y="473" type="line"/>
      <point x="513" y="485"/>
      <point x="491" y="489"/>
      <point x="460" y="489" type="curve" smooth="yes"/>
      <point x="383" y="489"/>
      <point x="321" y="448"/>
      <point x="292" y="379" type="curve"/>
      <point x="292" y="481" type="line"/>
      <point x="102" y="481" type="line"/>
      <point x="102" y="438" type="line"/>
      <point x="242" y="438" type="line"/>
      <point x="242" y="43" type="line"/>
      <point x="102" y="43" type="line"/>
    </contour>
  </outline>
</glyph>
<glyph name="s" format="2">
  <advance width="600"/>
  <unicode hex="0073"/>
  <anchor x="286" y="481" name="top"/>
  <anchor x="298" y="0" name="bottom"/>
  <outline>
    <contour>
      <point x="298" y="-10" type="curve" smooth="yes"/>
      <point x="411" y="-10"/>
      <point x="495" y="47"/>
      <point x="495" y="138" type="curve" smooth="yes"/>
      <point x="495" y="332"/>
      <point x="150" y="206"/>
      <point x="150" y="352" type="curve" smooth="yes"/>
      <point x="150" y="407"/>
      <point x="202" y="443"/>
      <point x="289" y="443" type="curve" smooth="yes"/>
      <point x="350" y="443"/>
      <point x="404" y="426"/>
      <point x="455" y="391" type="curve"/>
      <point x="481" y="430" type="line"/>
      <point x="421" y="472"/>
      <point x="363" y="489"/>
      <point x="291" y="489" type="curve" smooth="yes"/>
      <point x="180" y="489"/>
      <point x="102" y="437"/>
      <point x="102" y="349" type="curve" smooth="yes"/>
      <point x="102" y="155"/>
      <point x="447" y="279"/>
      <point x="447" y="135" type="curve" smooth="yes"/>
      <point x="447" y="73"/>
      <point x="383" y="36"/>
      <point x="296" y="36" type="curve" smooth="yes"/>
      <point x="232" y="36"/>
      <point x="177" y="56"/>
      <point x="123" y="99" type="curve"/>
      <point x="93" y="63" type="line"/>
      <point x="138" y="15"/>
      <point x="209" y="-10"/>
    </contour>
  </outline>
</glyph>
<glyph name="y" format="2">
  <advance width="600"/>
  <unicode hex="0079"/>
  <anchor x="293" y="481" name="top"/>
  <outline>
    <contour>
      <point x="129" y="-219" type="curve" smooth="yes"/>
      <point x="198" y="-219"/>
      <point x="233" y="-193"/>
      <point x="263" y="-125" type="curve" smooth="yes"/>
      <point x="526" y="481" type="line"/>
      <point x="471" y="481" type="line"/>
      <point x="293" y="55" type="line"/>
      <point x="121" y="481" type="line"/>
      <point x="65" y="481" type="line"/>
      <point x="265" y="0" type="line"/>
      <point x="220" y="-104" type="line" smooth="yes"/>
      <point x="198" y="-154"/>
      <point x="173" y="-173"/>
      <point x="133" y="-173" type="curve"/>
      <point x="109" y="-173"/>
      <point x="86" y="-167"/>
      <point x="69" y="-159" type="curve"/>
      <point x="69" y="-209" type="line"/>
      <point x="88" y="-217"/>
      <point x="110" y="-219"/>
    </contour>
  </outline>
</glyph>
<glyph name="z" format="2">
  <advance width="600"/>
  <unicode hex="007A"/>
  <anchor x="291" y="481" name="top"/>
  <outline>
    <contour>
      <point x="99" y="0" type="line"/>
      <point x="491" y="0" type="line"/>
      <point x="491" y="46" type="line"/>
      <point x="163" y="46" type="line"/>
      <point x="488" y="438" type="line"/>
      <point x="488" y="481" type="line"/>
      <point x="102" y="481" type="line"/>
      <point x="102" y="435" type="line"/>
      <point x="424" y="435" type="line"/>
      <point x="99" y="43" type="line"/>
    </contour>
  </outline>
</glyph>
<glyph name="asciitilde" format="2">
  <advance width="600"/>
  <unicode hex="007E"/>
  <outline>
    <contour>
      <point x="113" y="307" type="line"/>
      <point x="122" y="371"/>
      <point x="147" y="402"/>
      <point x="187" y="402" type="curve" smooth="yes"/>
      <point x="204" y="402"/>
      <point x="218" y="397"/>
      <point x="253" y="378" type="curve" smooth="yes"/>
      <point x="326" y="339" type="line" smooth="yes"/>
      <point x="363" y="319"/>
      <point x="389" y="310"/>
      <point x="414" y="310" type="curve" smooth="yes"/>
      <point x="476" y="310"/>
      <point x="518" y="359"/>
      <point x="528" y="446" type="curve"/>
      <point x="487" y="452" type="line"/>
      <point x="479" y="388"/>
      <point x="454" y="357"/>
      <point x="413" y="357" type="curve" smooth="yes"/>
      <point x="395" y="357"/>
      <point x="378" y="363"/>
      <point x="348" y="380" type="curve" smooth="yes"/>
      <point x="274" y="419" type="line" smooth="yes"/>
      <point x="235" y="441"/>
      <point x="211" y="449"/>
      <point x="187" y="449" type="curve" smooth="yes"/>
      <point x="125" y="449"/>
      <point x="83" y="399"/>
      <point x="72" y="312" type="curve"/>
    </contour>
  </outline>
</glyph>
<glyph name="cent" format="2">
  <advance width="600"/>
  <unicode hex="00A2"/>
  <guideline x="316" y="239" angle="0.0" color="0.999,0.001,0.001,0.999" identifier="3C9S4II89a"/>
  <guideline x="316" y="239" angle="90.0" color="0.999,0.001,0.001,0.999" identifier="jZ6xQCicNm"/>
  <outline>
    <contour>
      <point x="288" y="-123" type="line"/>
      <point x="332" y="-123" type="line"/>
      <point x="332" y="-11" type="line"/>
      <point x="404" y="-7"/>
      <point x="466" y="25"/>
      <point x="506" y="75" type="curve"/>
      <point x="466" y="101" type="line"/>
      <point x="433" y="63"/>
      <point x="386" y="39"/>
      <point x="332" y="36" type="curve"/>
      <point x="332" y="442" type="line"/>
      <point x="386" y="439"/>
      <point x="433" y="415"/>
      <point x="466" y="377" type="curve"/>
      <point x="506" y="403" type="line"/>
      <point x="466" y="453"/>
      <point x="404" y="485"/>
      <point x="332" y="489" type="curve"/>
      <point x="332" y="602" type="line"/>
      <point x="288" y="602" type="line"/>
      <point x="288" y="487" type="line"/>
      <point x="167" y="474"/>
      <point x="78" y="370"/>
      <point x="78" y="239" type="curve" smooth="yes"/>
      <point x="78" y="108"/>
      <point x="167" y="4"/>
      <point x="288" y="-9" type="curve"/>
    </contour>
    <contour>
      <point x="131" y="239" type="curve" smooth="yes"/>
      <point x="131" y="345"/>
      <point x="196" y="427"/>
      <point x="288" y="441" type="curve"/>
      <point x="288" y="37" type="line"/>
      <point x="196" y="51"/>
      <point x="131" y="133"/>
    </contour>
  </outline>
</glyph>
<glyph name="sterling" format="2">
  <advance width="600"/>
  <unicode hex="00A3"/>
  <outline>
    <contour>
      <point x="72" y="294" type="line"/>
      <point x="187" y="294" type="line"/>
      <point x="198" y="256"/>
      <point x="207" y="220"/>
      <point x="207" y="186" type="curve" smooth="yes"/>
      <point x="207" y="141"/>
      <point x="195" y="107"/>
      <point x="173" y="88" type="curve"/>
      <point x="111" y="88"/>
      <point x="70" y="63"/>
      <point x="32" y="4" type="curve"/>
      <point x="66" y="-25" type="line"/>
      <point x="95" y="22"/>
      <point x="124" y="42"/>
      <point x="165" y="42" type="curve" smooth="yes"/>
      <point x="256" y="42"/>
      <point x="343" y="-25"/>
      <point x="430" y="-25" type="curve" smooth="yes"/>
      <point x="483" y="-25"/>
      <point x="525" y="0"/>
      <point x="560" y="54" type="curve"/>
      <point x="524" y="83" type="line"/>
      <point x="497" y="41"/>
      <point x="470" y="23"/>
      <point x="432" y="23" type="curve" smooth="yes"/>
      <point x="363" y="23"/>
      <point x="297" y="64"/>
      <point x="225" y="81" type="curve"/>
      <point x="246" y="104"/>
      <point x="259" y="145"/>
      <point x="259" y="193" type="curve" smooth="yes"/>
      <point x="259" y="224"/>
      <point x="251" y="258"/>
      <point x="241" y="294" type="curve"/>
      <point x="385" y="294" type="line"/>
      <point x="385" y="338" type="line"/>
      <point x="227" y="338" type="line"/>
      <point x="201" y="418"/>
      <point x="188" y="477"/>
      <point x="188" y="523" type="curve"/>
      <point x="188" y="611"/>
      <point x="237" y="665"/>
      <point x="314" y="665" type="curve" smooth="yes"/>
      <point x="382" y="665"/>
      <point x="429" y="622"/>
      <point x="457" y="535" type="curve"/>
      <point x="502" y="556" type="line"/>
      <point x="462" y="663"/>
      <point x="404" y="711"/>
      <point x="314" y="711" type="curve" smooth="yes"/>
      <point x="210" y="711"/>
      <point x="136" y="640"/>
      <point x="136" y="525" type="curve"/>
      <point x="136" y="476"/>
      <point x="148" y="418"/>
      <point x="173" y="338" type="curve"/>
      <point x="72" y="338" type="line"/>
    </contour>
  </outline>
</glyph>
<glyph name="uni00A4" format="2">
  <advance width="600"/>
  <unicode hex="00A4"/>
  <outline>
    <contour>
      <point x="43" y="69" type="line"/>
      <point x="136" y="163" type="line"/>
      <point x="180" y="125"/>
      <point x="237" y="102"/>
      <point x="300" y="102" type="curve" smooth="yes"/>
      <point x="363" y="102"/>
      <point x="420" y="125"/>
      <point x="464" y="163" type="curve"/>
      <point x="557" y="69" type="line"/>
      <point x="586" y="100" type="line"/>
      <point x="492" y="195" type="line"/>
      <point x="528" y="239"/>
      <point x="549" y="295"/>
      <point x="549" y="360" type="curve" smooth="yes"/>
      <point x="549" y="425"/>
      <point x="528" y="481"/>
      <point x="492" y="525" type="curve"/>
      <point x="586" y="620" type="line"/>
      <point x="557" y="651" type="line"/>
      <point x="464" y="557" type="line"/>
      <point x="420" y="595"/>
      <point x="363" y="618"/>
      <point x="300" y="618" type="curve" smooth="yes"/>
      <point x="237" y="618"/>
      <point x="180" y="595"/>
      <point x="136" y="557" type="curve"/>
      <point x="43" y="651" type="line"/>
      <point x="14" y="620" type="line"/>
      <point x="108" y="525" type="line"/>
      <point x="72" y="481"/>
      <point x="51" y="425"/>
      <point x="51" y="360" type="curve" smooth="yes"/>
      <point x="51" y="295"/>
      <point x="72" y="239"/>
      <point x="108" y="195" type="curve"/>
      <point x="14" y="100" type="line"/>
    </contour>
    <contour>
      <point x="300" y="150" type="curve" smooth="yes"/>
      <point x="189" y="150"/>
      <point x="103" y="242"/>
      <point x="103" y="360" type="curve" smooth="yes"/>
      <point x="103" y="478"/>
      <point x="189" y="570"/>
      <point x="300" y="570" type="curve" smooth="yes"/>
      <point x="411" y="570"/>
      <point x="497" y="478"/>
      <point x="497" y="360" type="curve" smooth="yes"/>
      <point x="497" y="242"/>
      <point x="411" y="150"/>
    </contour>
  </outline>
</glyph>
<glyph name="yen" format="2">
  <advance width="600"/>
  <unicode hex="00A5"/>
  <outline>
    <contour>
      <point x="91" y="138" type="line"/>
      <point x="273" y="138" type="line"/>
      <point x="273" y="0" type="line"/>
      <point x="325" y="0" type="line"/>
      <point x="325" y="138" type="line"/>
      <point x="507" y="138" type="line"/>
      <point x="507" y="182" type="line"/>
      <point x="325" y="182" type="line"/>
      <point x="325" y="266" type="line"/>
      <point x="507" y="266" type="line"/>
      <point x="507" y="310" type="line"/>
      <point x="340" y="310" type="line"/>
      <point x="570" y="700" type="line"/>
      <point x="514" y="700" type="line"/>
      <point x="301" y="334" type="line"/>
      <point x="89" y="700" type="line"/>
      <point x="30" y="700" type="line"/>
      <point x="261" y="310" type="line"/>
      <point x="91" y="310" type="line"/>
      <point x="91" y="266" type="line"/>
      <point x="273" y="266" type="line"/>
      <point x="273" y="182" type="line"/>
      <point x="91" y="182" type="line"/>
    </contour>
  </outline>
</glyph>
<glyph name="dieresis" format="2">
  <advance width="600"/>
  <unicode hex="00A8"/>
  <outline>
    <contour>
      <point x="201" y="604" type="curve" smooth="yes"/>
      <point x="233" y="604"/>
      <point x="255" y="628"/>
      <point x="255" y="657" type="curve" smooth="yes"/>
      <point x="255" y="687"/>
      <point x="232" y="712"/>
      <point x="201" y="712" type="curve" smooth="yes"/>
      <point x="171" y="712"/>
      <point x="148" y="687"/>
      <point x="148" y="657" type="curve" smooth="yes"/>
      <point x="148" y="628"/>
      <point x="170" y="604"/>
    </contour>
    <contour>
      <point x="398" y="604" type="curve" smooth="yes"/>
      <point x="430" y="604"/>
      <point x="452" y="628"/>
      <point x="452" y="657" type="curve" smooth="yes"/>
      <point x="452" y="687"/>
      <point x="429" y="712"/>
      <point x="398" y="712" type="curve" smooth="yes"/>
      <point x="368" y="712"/>
      <point x="345" y="687"/>
      <point x="345" y="657" type="curve" smooth="yes"/>
      <point x="345" y="628"/>
      <point x="367" y="604"/>
    </contour>
  </outline>
</glyph>
<glyph name="copyright" format="2">
  <advance width="600"/>
  <unicode hex="00A9"/>
  <outline>
    <contour>
      <point x="305" y="167" type="curve" smooth="yes"/>
      <point x="353" y="167"/>
      <point x="399" y="189"/>
      <point x="432" y="223" type="curve"/>
      <point x="403" y="254" type="line"/>
      <point x="378" y="226"/>
      <point x="341" y="207"/>
      <point x="306" y="207" type="curve" smooth="yes"/>
      <point x="241" y="207"/>
      <point x="189" y="263"/>
      <point x="189" y="350" type="curve" smooth="yes"/>
      <point x="189" y="437"/>
      <point x="241" y="493"/>
      <point x="306" y="493" type="curve" smooth="yes"/>
      <point x="341" y="493"/>
      <point x="378" y="474"/>
      <point x="403" y="446" type="curve"/>
      <point x="432" y="477" type="line"/>
      <point x="399" y="511"/>
      <point x="353" y="533"/>
      <point x="305" y="533" type="curve" smooth="yes"/>
      <point x="217" y="533"/>
      <point x="146" y="458"/>
      <point x="146" y="350" type="curve" smooth="yes"/>
      <point x="146" y="242"/>
      <point x="217" y="167"/>
    </contour>
    <contour>
      <point x="300" y="-11" type="curve" smooth="yes"/>
      <point x="455" y="-11"/>
      <point x="581" y="130"/>
      <point x="581" y="350" type="curve" smooth="yes"/>
      <point x="581" y="570"/>
      <point x="455" y="711"/>
      <point x="300" y="711" type="curve" smooth="yes"/>
      <point x="145" y="711"/>
      <point x="19" y="570"/>
      <point x="19" y="350" type="curve" smooth="yes"/>
      <point x="19" y="130"/>
      <point x="145" y="-11"/>
    </contour>
    <contour>
      <point x="300" y="30" type="curve" smooth="yes"/>
      <point x="169" y="30"/>
      <point x="63" y="162"/>
      <point x="63" y="350" type="curve" smooth="yes"/>
      <point x="63" y="538"/>
      <point x="169" y="670"/>
      <point x="300" y="670" type="curve" smooth="yes"/>
      <point x="431" y="670"/>
      <point x="537" y="538"/>
      <point x="537" y="350" type="curve" smooth="yes"/>
      <point x="537" y="162"/>
      <point x="431" y="30"/>
    </contour>
  </outline>
</glyph>
<glyph name="ordfeminine" format="2">
  <advance width="600"/>
  <unicode hex="00AA"/>
  <outline>
    <contour>
      <point x="270" y="324" type="curve" smooth="yes"/>
      <point x="318" y="324"/>
      <point x="359" y="341"/>
      <point x="393" y="374" type="curve"/>
      <point x="393" y="331" type="line"/>
      <point x="437" y="331" type="line"/>
      <point x="437" y="583" type="line" smooth="yes"/>
      <point x="437" y="665"/>
      <point x="386" y="711"/>
      <point x="293" y="711" type="curve" smooth="yes"/>
      <point x="248" y="711"/>
      <point x="205" y="700"/>
      <point x="155" y="674" type="curve"/>
      <point x="172" y="639" type="line"/>
      <point x="218" y="662"/>
      <point x="254" y="672"/>
      <point x="290" y="672" type="curve" smooth="yes"/>
      <point x="358" y="672"/>
      <point x="393" y="640"/>
      <point x="393" y="577" type="curve" smooth="yes"/>
      <point x="393" y="519" type="line"/>
      <point x="359" y="539"/>
      <point x="319" y="550"/>
      <point x="281" y="550" type="curve" smooth="yes"/>
      <point x="190" y="550"/>
      <point x="131" y="505"/>
      <point x="131" y="436" type="curve" smooth="yes"/>
      <point x="131" y="370"/>
      <point x="188" y="324"/>
    </contour>
    <contour>
      <point x="276" y="361" type="curve" smooth="yes"/>
      <point x="216" y="361"/>
      <point x="175" y="392"/>
      <point x="175" y="438" type="curve" smooth="yes"/>
      <point x="175" y="484"/>
      <point x="216" y="515"/>
      <point x="278" y="515" type="curve" smooth="yes"/>
      <point x="325" y="515"/>
      <point x="361" y="505"/>
      <point x="393" y="482" type="curve"/>
      <point x="393" y="408" type="line"/>
      <point x="362" y="377"/>
      <point x="323" y="361"/>
    </contour>
  </outline>
</glyph>
<glyph name="uni00AC" format="2">
  <advance width="600"/>
  <unicode hex="00AC"/>
  <outline>
    <contour>
      <point x="470" y="0" type="line"/>
      <point x="520" y="0" type="line"/>
      <point x="520" y="303" type="line"/>
      <point x="81" y="303" type="line"/>
      <point x="81" y="258" type="line"/>
      <point x="470" y="258" type="line"/>
    </contour>
  </outline>
</glyph>
<glyph name="registered" format="2">
  <advance width="600"/>
  <unicode hex="00AE"/>
  <outline>
    <contour>
      <point x="300" y="313" type="curve" smooth="yes"/>
      <point x="406" y="313"/>
      <point x="488" y="400"/>
      <point x="488" y="512" type="curve" smooth="yes"/>
      <point x="488" y="624"/>
      <point x="406" y="711"/>
      <point x="300" y="711" type="curve" smooth="yes"/>
      <point x="194" y="711"/>
      <point x="112" y="624"/>
      <point x="112" y="512" type="curve" smooth="yes"/>
      <point x="112" y="400"/>
      <point x="194" y="313"/>
    </contour>
    <contour>
      <point x="300" y="343" type="curve" smooth="yes"/>
      <point x="209" y="343"/>
      <point x="143" y="415"/>
      <point x="143" y="512" type="curve" smooth="yes"/>
      <point x="143" y="609"/>
      <point x="209" y="681"/>
      <point x="300" y="681" type="curve" smooth="yes"/>
      <point x="391" y="681"/>
      <point x="457" y="609"/>
      <point x="457" y="512" type="curve" smooth="yes"/>
      <point x="457" y="415"/>
      <point x="391" y="343"/>
    </contour>
    <contour>
      <point x="239" y="419" type="line"/>
      <point x="267" y="419" type="line"/>
      <point x="267" y="491" type="line"/>
      <point x="305" y="491" type="line"/>
      <point x="347" y="419" type="line"/>
      <point x="378" y="419" type="line"/>
      <point x="332" y="497" type="line"/>
      <point x="354" y="507"/>
      <point x="366" y="527"/>
      <point x="366" y="549" type="curve" smooth="yes"/>
      <point x="366" y="585"/>
      <point x="344" y="607"/>
      <point x="307" y="607" type="curve" smooth="yes"/>
      <point x="239" y="607" type="line"/>
    </contour>
    <contour>
      <point x="304" y="582" type="line" smooth="yes"/>
      <point x="327" y="582"/>
      <point x="339" y="570"/>
      <point x="339" y="549" type="curve" smooth="yes"/>
      <point x="339" y="528"/>
      <point x="327" y="516"/>
      <point x="304" y="516" type="curve" smooth="yes"/>
      <point x="267" y="516" type="line"/>
      <point x="267" y="582" type="line"/>
    </contour>
  </outline>
</glyph>
<glyph name="macron" format="2">
  <advance width="600"/>
  <unicode hex="00AF"/>
  <outline>
    <contour>
      <point x="170" y="632" type="line"/>
      <point x="430" y="632" type="line"/>
      <point x="430" y="672" type="line"/>
      <point x="170" y="672" type="line"/>
    </contour>
  </outline>
</glyph>
<glyph name="uni00B5" format="2">
  <advance width="600"/>
  <unicode hex="00B5"/>
  <outline>
    <contour>
      <point x="110" y="-209" type="line"/>
      <point x="160" y="-209" type="line"/>
      <point x="160" y="45" type="line"/>
      <point x="191" y="11"/>
      <point x="235" y="-8"/>
      <point x="289" y="-8" type="curve" smooth="yes"/>
      <point x="354" y="-8"/>
      <point x="406" y="21"/>
      <point x="443" y="76" type="curve"/>
      <point x="443" y="0" type="line"/>
      <point x="493" y="0" type="line"/>
      <point x="493" y="481" type="line"/>
      <point x="443" y="481" type="line"/>
      <point x="443" y="118" type="line"/>
      <point x="413" y="67"/>
      <point x="363" y="36"/>
      <point x="303" y="36" type="curve" smooth="yes"/>
      <point x="216" y="36"/>
      <point x="160" y="95"/>
      <point x="160" y="187" type="curve"/>
      <point x="160" y="481" type="line"/>
      <point x="110" y="481" type="line"/>
    </contour>
  </outline>
</glyph>
<glyph name="cedilla" format="2">
  <advance width="600"/>
  <unicode hex="00B8"/>
  <guideline x="293" y="0" angle="0.0" color="0.999,0.001,0.001,0.999" identifier="4RmmuUlyDz"/>
  <outline>
    <contour>
      <point x="285" y="-235" type="curve" smooth="yes"/>
      <point x="348" y="-235"/>
      <point x="391" y="-198"/>
      <point x="391" y="-147" type="curve" smooth="yes"/>
      <point x="391" y="-100"/>
      <point x="353" y="-70"/>
      <point x="295" y="-68" type="curve"/>
      <point x="310" y="0" type="line"/>
      <point x="277" y="0" type="line"/>
      <point x="252" y="-96" type="line"/>
      <point x="277" y="-96" type="line" smooth="yes"/>
      <point x="325" y="-96"/>
      <point x="353" y="-115"/>
      <point x="353" y="-149" type="curve" smooth="yes"/>
      <point x="353" y="-183"/>
      <point x="327" y="-204"/>
      <point x="284" y="-204" type="curve" smooth="yes"/>
      <point x="254" y="-204"/>
      <point x="227" y="-194"/>
      <point x="204" y="-175" type="curve"/>
      <point x="182" y="-201" type="line"/>
      <point x="208" y="-224"/>
      <point x="244" y="-235"/>
    </contour>
  </outline>
</glyph>
<glyph name="ordmasculine" format="2">
  <advance width="600"/>
  <unicode hex="00BA"/>
  <outline>
    <contour>
      <point x="300" y="323" type="curve" smooth="yes"/>
      <point x="405" y="323"/>
      <point x="488" y="408"/>
      <point x="488" y="517" type="curve" smooth="yes"/>
      <point x="488" y="626"/>
      <point x="405" y="711"/>
      <point x="300" y="711" type="curve" smooth="yes"/>
      <point x="195" y="711"/>
      <point x="112" y="626"/>
      <point x="112" y="517" type="curve" smooth="yes"/>
      <point x="112" y="408"/>
      <point x="195" y="323"/>
    </contour>
    <contour>
      <point x="300" y="364" type="curve" smooth="yes"/>
      <point x="219" y="364"/>
      <point x="156" y="432"/>
      <point x="156" y="517" type="curve" smooth="yes"/>
      <point x="156" y="602"/>
      <point x="219" y="670"/>
      <point x="300" y="670" type="curve" smooth="yes"/>
      <point x="381" y="670"/>
      <point x="444" y="602"/>
      <point x="444" y="517" type="curve" smooth="yes"/>
      <point x="444" y="432"/>
      <point x="381" y="364"/>
    </contour>
  </outline>
</glyph>
<glyph name="AE" format="2">
  <advance width="600"/>
  <unicode hex="00C6"/>
  <outline>
    <contour>
      <point x="10" y="0" type="line"/>
      <point x="68" y="0" type="line"/>
      <point x="132" y="182" type="line"/>
      <point x="288" y="182" type="line"/>
      <point x="288" y="0" type="line"/>
      <point x="568" y="0" type="line"/>
      <point x="568" y="47" type="line"/>
      <point x="340" y="47" type="line"/>
      <point x="340" y="330" type="line"/>
      <point x="489" y="330" type="line"/>
      <point x="489" y="377" type="line"/>
      <point x="340" y="377" type="line"/>
      <point x="340" y="653" type="line"/>
      <point x="564" y="653" type="line"/>
      <point x="564" y="700" type="line"/>
      <point x="262" y="700" type="line"/>
    </contour>
    <contour>
      <point x="146" y="224" type="line"/>
      <point x="288" y="630" type="line"/>
      <point x="288" y="224" type="line"/>
    </contour>
  </outline>
</glyph>
<glyph name="Ccedilla" format="2">
  <advance width="600"/>
  <unicode hex="00C7"/>
  <outline>
    <contour>
      <point x="293" y="-235" type="curve" smooth="yes"/>
      <point x="356" y="-235"/>
      <point x="399" y="-198"/>
      <point x="399" y="-147" type="curve" smooth="yes"/>
      <point x="399" y="-100"/>
      <point x="361" y="-70"/>
      <point x="303" y="-68" type="curve"/>
      <point x="316" y="-11" type="line"/>
      <point x="430" y="-5"/>
      <point x="516" y="72"/>
      <point x="554" y="197" type="curve"/>
      <point x="503" y="214" type="line"/>
      <point x="472" y="100"/>
      <point x="392" y="37"/>
      <point x="302" y="37" type="curve" smooth="yes"/>
      <point x="184" y="37"/>
      <point x="96" y="155"/>
      <point x="96" y="350" type="curve" smooth="yes"/>
      <point x="96" y="545"/>
      <point x="184" y="663"/>
      <point x="302" y="663" type="curve" smooth="yes"/>
      <point x="392" y="663"/>
      <point x="472" y="600"/>
      <point x="503" y="486" type="curve"/>
      <point x="554" y="503" type="line"/>
      <point x="514" y="633"/>
      <point x="423" y="711"/>
      <point x="302" y="711" type="curve" smooth="yes"/>
      <point x="164" y="711"/>
      <point x="44" y="582"/>
      <point x="44" y="350" type="curve" smooth="yes"/>
      <point x="44" y="129"/>
      <point x="153" y="2"/>
      <point x="282" y="-10" type="curve"/>
      <point x="260" y="-96" type="line"/>
      <point x="285" y="-96" type="line" smooth="yes"/>
      <point x="333" y="-96"/>
      <point x="361" y="-115"/>
      <point x="361" y="-149" type="curve" smooth="yes"/>
      <point x="361" y="-183"/>
      <point x="335" y="-204"/>
      <point x="292" y="-204" type="curve" smooth="yes"/>
      <point x="262" y="-204"/>
      <point x="235" y="-194"/>
      <point x="212" y="-175" type="curve"/>
      <point x="190" y="-201" type="line"/>
      <point x="216" y="-224"/>
      <point x="252" y="-235"/>
    </contour>
  </outline>
</glyph>
<glyph name="multiply" format="2">
  <advance width="600"/>
  <unicode hex="00D7"/>
  <outline>
    <contour>
      <point x="150" y="170" type="line"/>
      <point x="300" y="329" type="line"/>
      <point x="449" y="170" type="line"/>
      <point x="480" y="201" type="line"/>
      <point x="330" y="361" type="line"/>
      <point x="479" y="519" type="line"/>
      <point x="449" y="550" type="line"/>
      <point x="301" y="391" type="line"/>
      <point x="151" y="550" type="line"/>
      <point x="122" y="519" type="line"/>
      <point x="271" y="360" type="line"/>
      <point x="122" y="200" type="line"/>
    </contour>
  </outline>
</glyph>
<glyph name="germandbls" format="2">
  <advance width="600"/>
  <unicode hex="00DF"/>
  <outline>
    <contour>
      <point x="390" y="-10" type="curve" smooth="yes"/>
      <point x="490" y="-10"/>
      <point x="557" y="45"/>
      <point x="557" y="127" type="curve" smooth="yes"/>
      <point x="557" y="313"/>
      <point x="304" y="257"/>
      <point x="304" y="358" type="curve" smooth="yes"/>
      <point x="304" y="441"/>
      <point x="473" y="440"/>
      <point x="473" y="575" type="curve" smooth="yes"/>
      <point x="473" y="667"/>
      <point x="400" y="737"/>
      <point x="286" y="737" type="curve" smooth="yes"/>
      <point x="159" y="737"/>
      <point x="83" y="645"/>
      <point x="83" y="503" type="curve" smooth="yes"/>
      <point x="83" y="0" type="line"/>
      <point x="133" y="0" type="line"/>
      <point x="133" y="502" type="line" smooth="yes"/>
      <point x="133" y="618"/>
      <point x="184" y="691"/>
      <point x="287" y="691" type="curve" smooth="yes"/>
      <point x="369" y="691"/>
      <point x="425" y="641"/>
      <point x="425" y="577" type="curve"/>
      <point x="425" y="464"/>
      <point x="255" y="475"/>
      <point x="256" y="356" type="curve" smooth="yes"/>
      <point x="257" y="203"/>
      <point x="509" y="272"/>
      <point x="509" y="126" type="curve" smooth="yes"/>
      <point x="509" y="66"/>
      <point x="461" y="34"/>
      <point x="393" y="34" type="curve" smooth="yes"/>
      <point x="341" y="34"/>
      <point x="294" y="52"/>
      <point x="259" y="87" type="curve"/>
      <point x="225" y="53" type="line"/>
      <point x="271" y="10"/>
      <point x="325" y="-10"/>
    </contour>
  </outline>
</glyph>
<glyph name="ae" format="2">
  <advance width="600"/>
  <unicode hex="00E6"/>
  <outline>
    <contour>
      <point x="172" y="-10" type="curve" smooth="yes"/>
      <point x="225" y="-10"/>
      <point x="269" y="14"/>
      <point x="306" y="65" type="curve"/>
      <point x="336" y="17"/>
      <point x="381" y="-10"/>
      <point x="435" y="-10" type="curve" smooth="yes"/>
      <point x="486" y="-10"/>
      <point x="536" y="8"/>
      <point x="572" y="40" type="curve"/>
      <point x="542" y="74" type="line"/>
      <point x="517" y="50"/>
      <point x="475" y="34"/>
      <point x="438" y="34" type="curve" smooth="yes"/>
      <point x="364" y="34"/>
      <point x="313" y="114"/>
      <point x="310" y="231" type="curve"/>
      <point x="578" y="231" type="line"/>
      <point x="578" y="250" type="line" smooth="yes"/>
      <point x="578" y="400"/>
      <point x="521" y="489"/>
      <point x="425" y="489" type="curve" smooth="yes"/>
      <point x="375" y="489"/>
      <point x="331" y="459"/>
      <point x="302" y="408" type="curve"/>
      <point x="285" y="461"/>
      <point x="241" y="489"/>
      <point x="177" y="489" type="curve" smooth="yes"/>
      <point x="129" y="489"/>
      <point x="81" y="471"/>
      <point x="37" y="435" type="curve"/>
      <point x="66" y="401" type="line"/>
      <point x="105" y="432"/>
      <point x="142" y="447"/>
      <point x="178" y="447" type="curve" smooth="yes"/>
      <point x="239" y="447"/>
      <point x="262" y="410"/>
      <point x="262" y="340" type="curve" smooth="yes"/>
      <point x="262" y="262" type="line"/>
      <point x="238" y="276"/>
      <point x="212" y="282"/>
      <point x="184" y="282" type="curve" smooth="yes"/>
      <point x="93" y="282"/>
      <point x="35" y="223"/>
      <point x="35" y="132" type="curve" smooth="yes"/>
      <point x="35" y="50"/>
      <point x="92" y="-10"/>
    </contour>
    <contour>
      <point x="311" y="272" type="line"/>
      <point x="320" y="374"/>
      <point x="365" y="445"/>
      <point x="426" y="445" type="curve" smooth="yes"/>
      <point x="489" y="445"/>
      <point x="526" y="383"/>
      <point x="531" y="272" type="curve"/>
    </contour>
    <contour>
      <point x="171" y="32" type="curve" smooth="yes"/>
      <point x="120" y="32"/>
      <point x="83" y="74"/>
      <point x="83" y="132" type="curve" smooth="yes"/>
      <point x="83" y="200"/>
      <point x="121" y="240"/>
      <point x="187" y="240" type="curve" smooth="yes"/>
      <point x="213" y="240"/>
      <point x="238" y="234"/>
      <point x="262" y="221" type="curve"/>
      <point x="264" y="176"/>
      <point x="272" y="136"/>
      <point x="286" y="103" type="curve"/>
      <point x="252" y="56"/>
      <point x="213" y="32"/>
    </contour>
  </outline>
</glyph>
<glyph name="ccedilla" format="2">
  <advance width="600"/>
  <unicode hex="00E7"/>
  <outline>
    <contour>
      <point x="295" y="-235" type="curve" smooth="yes"/>
      <point x="358" y="-235"/>
      <point x="401" y="-198"/>
      <point x="401" y="-147" type="curve" smooth="yes"/>
      <point x="401" y="-100"/>
      <point x="363" y="-70"/>
      <point x="305" y="-68" type="curve"/>
      <point x="318" y="-10" type="line"/>
      <point x="397" y="-6"/>
      <point x="466" y="35"/>
      <point x="505" y="98" type="curve"/>
      <point x="463" y="121" type="line"/>
      <point x="430" y="69"/>
      <point x="372" y="36"/>
      <point x="305" y="36" type="curve" smooth="yes"/>
      <point x="199" y="36"/>
      <point x="120" y="123"/>
      <point x="120" y="240" type="curve" smooth="yes"/>
      <point x="120" y="357"/>
      <point x="199" y="443"/>
      <point x="305" y="443" type="curve" smooth="yes"/>
      <point x="372" y="443"/>
      <point x="430" y="410"/>
      <point x="463" y="358" type="curve"/>
      <point x="505" y="381" type="line"/>
      <point x="464" y="447"/>
      <point x="390" y="489"/>
      <point x="305" y="489" type="curve" smooth="yes"/>
      <point x="170" y="489"/>
      <point x="69" y="380"/>
      <point x="69" y="239" type="curve" smooth="yes"/>
      <point x="69" y="105"/>
      <point x="160" y="1"/>
      <point x="285" y="-9" type="curve"/>
      <point x="262" y="-96" type="line"/>
      <point x="287" y="-96" type="line" smooth="yes"/>
      <point x="335" y="-96"/>
      <point x="363" y="-115"/>
      <point x="363" y="-149" type="curve" smooth="yes"/>
      <point x="363" y="-183"/>
      <point x="337" y="-204"/>
      <point x="294" y="-204" type="curve" smooth="yes"/>
      <point x="264" y="-204"/>
      <point x="237" y="-194"/>
      <point x="214" y="-175" type="curve"/>
      <point x="192" y="-201" type="line"/>
      <point x="218" y="-224"/>
      <point x="254" y="-235"/>
    </contour>
  </outline>
</glyph>
<glyph name="Aogonek" format="2">
  <advance width="600"/>
  <unicode hex="0104"/>
  <outline>
    <contour>
      <point x="20" y="0" type="line"/>
      <point x="73" y="0" type="line"/>
      <point x="145" y="210" type="line"/>
      <point x="454" y="210" type="line"/>
      <point x="526" y="0" type="line"/>
      <point x="531" y="0" type="line"/>
      <point x="456" y="-55"/>
      <point x="430" y="-96"/>
      <point x="430" y="-142" type="curve" smooth="yes"/>
      <point x="430" y="-193"/>
      <point x="468" y="-231"/>
      <point x="536" y="-231" type="curve" smooth="yes"/>
      <point x="562" y="-231"/>
      <point x="586" y="-224"/>
      <point x="603" y="-213" type="curve"/>
      <point x="591" y="-182" type="line"/>
      <point x="578" y="-190"/>
      <point x="559" y="-195"/>
      <point x="542" y="-195" type="curve" smooth="yes"/>
      <point x="499" y="-195"/>
      <point x="470" y="-174"/>
      <point x="470" y="-134" type="curve" smooth="yes"/>
      <point x="470" y="-97"/>
      <point x="496" y="-56"/>
      <point x="580" y="0" type="curve"/>
      <point x="336" y="700" type="line"/>
      <point x="264" y="700" type="line"/>
    </contour>
    <contour>
      <point x="159" y="252" type="line"/>
      <point x="299" y="662" type="line"/>
      <point x="440" y="252" type="line"/>
    </contour>
  </outline>
</glyph>
<glyph name="aogonek" format="2">
  <advance width="600"/>
  <unicode hex="0105"/>
  <outline>
    <contour>
      <point x="264" y="-10" type="curve" smooth="yes"/>
      <point x="328" y="-10"/>
      <point x="385" y="14"/>
      <point x="429" y="60" type="curve"/>
      <point x="429" y="0" type="line"/>
      <point x="430" y="0" type="line"/>
      <point x="355" y="-55"/>
      <point x="328" y="-96"/>
      <point x="328" y="-142" type="curve" smooth="yes"/>
      <point x="328" y="-193"/>
      <point x="366" y="-231"/>
      <point x="434" y="-231" type="curve" smooth="yes"/>
      <point x="460" y="-231"/>
      <point x="484" y="-224"/>
      <point x="501" y="-213" type="curve"/>
      <point x="489" y="-182" type="line"/>
      <point x="476" y="-190"/>
      <point x="457" y="-195"/>
      <point x="440" y="-195" type="curve" smooth="yes"/>
      <point x="397" y="-195"/>
      <point x="368" y="-174"/>
      <point x="368" y="-134" type="curve" smooth="yes"/>
      <point x="368" y="-97"/>
      <point x="394" y="-56"/>
      <point x="478" y="0" type="curve"/>
      <point x="478" y="310" type="line" smooth="yes"/>
      <point x="478" y="425"/>
      <point x="411" y="489"/>
      <point x="292" y="489" type="curve" smooth="yes"/>
      <point x="229" y="489"/>
      <point x="170" y="472"/>
      <point x="108" y="437" type="curve"/>
      <point x="130" y="397" type="line"/>
      <point x="187" y="432"/>
      <point x="234" y="447"/>
      <point x="290" y="447" type="curve" smooth="yes"/>
      <point x="380" y="447"/>
      <point x="429" y="398"/>
      <point x="429" y="301" type="curve" smooth="yes"/>
      <point x="429" y="239" type="line"/>
      <point x="386" y="269"/>
      <point x="331" y="282"/>
      <point x="266" y="282" type="curve" smooth="yes"/>
      <point x="157" y="282"/>
      <point x="81" y="223"/>
      <point x="81" y="138" type="curve" smooth="yes"/>
      <point x="81" y="51"/>
      <point x="156" y="-10"/>
    </contour>
    <contour>
      <point x="130" y="140" type="curve" smooth="yes"/>
      <point x="130" y="199"/>
      <point x="187" y="240"/>
      <point x="271" y="240" type="curve" smooth="yes"/>
      <point x="335" y="240"/>
      <point x="384" y="228"/>
      <point x="429" y="198" type="curve"/>
      <point x="429" y="98" type="line"/>
      <point x="384" y="52"/>
      <point x="333" y="32"/>
      <point x="270" y="32" type="curve"/>
      <point x="187" y="32"/>
      <point x="130" y="75"/>
    </contour>
  </outline>
</glyph>
<glyph name="dcaron" format="2">
  <advance width="600"/>
  <unicode hex="010F"/>
  <outline>
    <contour>
      <point x="573" y="549" type="line"/>
      <point x="609" y="549" type="line"/>
      <point x="628" y="737" type="line"/>
      <point x="576" y="725" type="line"/>
    </contour>
    <contour>
      <point x="280" y="-8" type="curve"/>
      <point x="338" y="-8"/>
      <point x="391" y="13"/>
      <point x="430" y="53" type="curve"/>
      <point x="430" y="0" type="line"/>
      <point x="480" y="0" type="line"/>
      <point x="480" y="737" type="line"/>
      <point x="430" y="725" type="line"/>
      <point x="430" y="423" type="line"/>
      <point x="391" y="465"/>
      <point x="340" y="487"/>
      <point x="278" y="487" type="curve"/>
      <point x="155" y="487"/>
      <point x="60" y="379"/>
      <point x="60" y="240" type="curve" smooth="yes"/>
      <point x="60" y="100"/>
      <point x="156" y="-8"/>
    </contour>
    <contour>
      <point x="110" y="239" type="curve" smooth="yes"/>
      <point x="110" y="354"/>
      <point x="188" y="441"/>
      <point x="288" y="441" type="curve"/>
      <point x="346" y="441"/>
      <point x="397" y="418"/>
      <point x="430" y="378" type="curve"/>
      <point x="430" y="98" type="line"/>
      <point x="396" y="59"/>
      <point x="344" y="38"/>
      <point x="288" y="38" type="curve"/>
      <point x="188" y="38"/>
      <point x="110" y="124"/>
    </contour>
  </outline>
</glyph>
<glyph name="Eogonek" format="2">
  <advance width="600"/>
  <unicode hex="0118"/>
  <outline>
    <contour>
      <point x="103" y="0" type="line"/>
      <point x="484" y="0" type="line"/>
      <point x="409" y="-55"/>
      <point x="383" y="-96"/>
      <point x="383" y="-142" type="curve" smooth="yes"/>
      <point x="383" y="-193"/>
      <point x="421" y="-231"/>
      <point x="489" y="-231" type="curve" smooth="yes"/>
      <point x="515" y="-231"/>
      <point x="539" y="-224"/>
      <point x="556" y="-213" type="curve"/>
      <point x="544" y="-182" type="line"/>
      <point x="531" y="-190"/>
      <point x="512" y="-195"/>
      <point x="495" y="-195" type="curve" smooth="yes"/>
      <point x="452" y="-195"/>
      <point x="423" y="-174"/>
      <point x="423" y="-134" type="curve" smooth="yes"/>
      <point x="423" y="-97"/>
      <point x="449" y="-56"/>
      <point x="533" y="0" type="curve"/>
      <point x="533" y="47" type="line"/>
      <point x="155" y="47" type="line"/>
      <point x="155" y="330" type="line"/>
      <point x="404" y="330" type="line"/>
      <point x="404" y="377" type="line"/>
      <point x="155" y="377" type="line"/>
      <point x="155" y="653" type="line"/>
      <point x="529" y="653" type="line"/>
      <point x="529" y="700" type="line"/>
      <point x="103" y="700" type="line"/>
    </contour>
  </outline>
</glyph>
<glyph name="eogonek" format="2">
  <advance width="600"/>
  <unicode hex="0119"/>
  <outline>
    <contour>
      <point x="72" y="240" type="curve" smooth="yes"/>
      <point x="72" y="94"/>
      <point x="186" y="-15"/>
      <point x="323" y="-10" type="curve"/>
      <point x="258" y="-60"/>
      <point x="235" y="-99"/>
      <point x="235" y="-142" type="curve" smooth="yes"/>
      <point x="235" y="-193"/>
      <point x="273" y="-231"/>
      <point x="341" y="-231" type="curve" smooth="yes"/>
      <point x="367" y="-231"/>
      <point x="391" y="-224"/>
      <point x="408" y="-213" type="curve"/>
      <point x="396" y="-182" type="line"/>
      <point x="383" y="-190"/>
      <point x="364" y="-195"/>
      <point x="347" y="-195" type="curve" smooth="yes"/>
      <point x="304" y="-195"/>
      <point x="275" y="-174"/>
      <point x="275" y="-134" type="curve" smooth="yes"/>
      <point x="275" y="-97"/>
      <point x="301" y="-56"/>
      <point x="385" y="0" type="curve"/>
      <point x="430" y="13"/>
      <point x="469" y="37"/>
      <point x="501" y="70" type="curve"/>
      <point x="466" y="102" type="line"/>
      <point x="430" y="60"/>
      <point x="373" y="36"/>
      <point x="313" y="36" type="curve" smooth="yes"/>
      <point x="213" y="36"/>
      <point x="127" y="119"/>
      <point x="122" y="231" type="curve"/>
      <point x="532" y="231" type="line"/>
      <point x="532" y="250" type="line" smooth="yes"/>
      <point x="532" y="384"/>
      <point x="431" y="489"/>
      <point x="302" y="489" type="curve" smooth="yes"/>
      <point x="172" y="489"/>
      <point x="72" y="381"/>
    </contour>
    <contour>
      <point x="124" y="272" type="line"/>
      <point x="137" y="372"/>
      <point x="209" y="443"/>
      <point x="302" y="443" type="curve" smooth="yes"/>
      <point x="398" y="443"/>
      <point x="471" y="369"/>
      <point x="481" y="272" type="curve"/>
    </contour>
  </outline>
</glyph>
<glyph name="hbar" format="2">
  <advance width="600"/>
  <unicode hex="0127"/>
  <outline>
    <contour>
      <point x="109" y="0" type="line"/>
      <point x="159" y="0" type="line"/>
      <point x="159" y="360" type="line"/>
      <point x="187" y="413"/>
      <point x="239" y="445"/>
      <point x="301" y="445" type="curve" smooth="yes"/>
      <point x="388" y="445"/>
      <point x="444" y="387"/>
      <point x="444" y="293" type="curve" smooth="yes"/>
      <point x="444" y="0" type="line"/>
      <point x="494" y="0" type="line"/>
      <point x="494" y="308" type="line" smooth="yes"/>
      <point x="494" y="416"/>
      <point x="422" y="489"/>
      <point x="315" y="489" type="curve" smooth="yes"/>
      <point x="249" y="489"/>
      <point x="196" y="460"/>
      <point x="159" y="403" type="curve"/>
      <point x="159" y="576" type="line"/>
      <point x="315" y="576" type="line"/>
      <point x="315" y="616" type="line"/>
      <point x="159" y="616" type="line"/>
      <point x="159" y="737" type="line"/>
      <point x="109" y="725" type="line"/>
      <point x="109" y="616" type="line"/>
      <point x="27" y="616" type="line"/>
      <point x="27" y="576" type="line"/>
      <point x="109" y="576" type="line"/>
    </contour>
  </outline>
</glyph>
<glyph name="ij" format="2">
  <advance width="600"/>
  <unicode hex="0133"/>
  <outline>
    <contour>
      <point x="145" y="0" type="line"/>
      <point x="195" y="0" type="line"/>
      <point x="195" y="481" type="line"/>
      <point x="145" y="481" type="line"/>
    </contour>
    <contour>
      <point x="348" y="-219" type="curve" smooth="yes"/>
      <point x="418" y="-219"/>
      <point x="456" y="-177"/>
      <point x="456" y="-105" type="curve" smooth="yes"/>
      <point x="456" y="481" type="line"/>
      <point x="406" y="481" type="line"/>
      <point x="406" y="-102" type="line" smooth="yes"/>
      <point x="406" y="-151"/>
      <point x="389" y="-173"/>
      <point x="345" y="-173" type="curve" smooth="yes"/>
      <point x="332" y="-173"/>
      <point x="323" y="-171"/>
      <point x="312" y="-167" type="curve"/>
      <point x="312" y="-215" type="line"/>
      <point x="324" y="-218"/>
      <point x="334" y="-219"/>
    </contour>
    <contour>
      <point x="223" y="657" type="curve" smooth="yes"/>
      <point x="223" y="687"/>
      <point x="200" y="712"/>
      <point x="170" y="712" type="curve" smooth="yes"/>
      <point x="140" y="712"/>
      <point x="117" y="687"/>
      <point x="117" y="657" type="curve" smooth="yes"/>
      <point x="117" y="627"/>
      <point x="140" y="602"/>
      <point x="170" y="602" type="curve" smooth="yes"/>
      <point x="200" y="602"/>
      <point x="223" y="627"/>
    </contour>
    <contour>
      <point x="483" y="657" type="curve" smooth="yes"/>
      <point x="483" y="687"/>
      <point x="460" y="712"/>
      <point x="430" y="712" type="curve" smooth="yes"/>
      <point x="400" y="712"/>
      <point x="377" y="687"/>
      <point x="377" y="657" type="curve" smooth="yes"/>
      <point x="377" y="627"/>
      <point x="400" y="602"/>
      <point x="430" y="602" type="curve" smooth="yes"/>
      <point x="460" y="602"/>
      <point x="483" y="627"/>
    </contour>
  </outline>
</glyph>
<glyph name="kgreenlandic" format="2">
  <advance width="600"/>
  <unicode hex="0138"/>
  <outline>
    <contour>
      <point x="127" y="0" type="line"/>
      <point x="177" y="0" type="line"/>
      <point x="177" y="238" type="line"/>
      <point x="463" y="0" type="line"/>
      <point x="534" y="0" type="line"/>
      <point x="234" y="247" type="line"/>
      <point x="524" y="481" type="line"/>
      <point x="456" y="481" type="line"/>
      <point x="177" y="254" type="line"/>
      <point x="177" y="481" type="line"/>
      <point x="127" y="481" type="line"/>
    </contour>
  </outline>
</glyph>
<glyph name="Lslash" format="2">
  <advance width="600"/>
  <unicode hex="0141"/>
  <outline>
    <contour>
      <point x="117" y="0" type="line"/>
      <point x="540" y="0" type="line"/>
      <point x="540" y="47" type="line"/>
      <point x="169" y="47" type="line"/>
      <point x="169" y="287" type="line"/>
      <point x="399" y="438" type="line"/>
      <point x="399" y="492" type="line"/>
      <point x="169" y="341" type="line"/>
      <point x="169" y="700" type="line"/>
      <point x="117" y="700" type="line"/>
      <point x="117" y="310" type="line"/>
      <point x="10" y="239" type="line"/>
      <point x="10" y="185" type="line"/>
      <point x="117" y="256" type="line"/>
    </contour>
  </outline>
</glyph>
<glyph name="OE" format="2">
  <advance width="600"/>
  <unicode hex="0152"/>
  <outline>
    <contour>
      <point x="25" y="350" type="curve" smooth="yes"/>
      <point x="25" y="135"/>
      <point x="132" y="0"/>
      <point x="304" y="0" type="curve" smooth="yes"/>
      <point x="577" y="0" type="line"/>
      <point x="577" y="47" type="line"/>
      <point x="345" y="47" type="line"/>
      <point x="345" y="330" type="line"/>
      <point x="498" y="330" type="line"/>
      <point x="498" y="377" type="line"/>
      <point x="345" y="377" type="line"/>
      <point x="345" y="653" type="line"/>
      <point x="573" y="653" type="line"/>
      <point x="573" y="700" type="line"/>
      <point x="304" y="700" type="line" smooth="yes"/>
      <point x="132" y="700"/>
      <point x="25" y="565"/>
    </contour>
    <contour>
      <point x="77" y="350" type="curve" smooth="yes"/>
      <point x="77" y="529"/>
      <point x="157" y="640"/>
      <point x="293" y="652" type="curve"/>
      <point x="293" y="48" type="line"/>
      <point x="157" y="60"/>
      <point x="77" y="171"/>
    </contour>
  </outline>
</glyph>
<glyph name="oe" format="2">
  <advance width="600"/>
  <unicode hex="0153"/>
  <guideline x="414" y="290" angle="0.0" identifier="HEBpG9pS7J"/>
  <outline>
    <contour>
      <point x="175" y="-10" type="curve" smooth="yes"/>
      <point x="231" y="-10"/>
      <point x="279" y="32"/>
      <point x="306" y="100" type="curve"/>
      <point x="333" y="31"/>
      <point x="382" y="-10"/>
      <point x="445" y="-10" type="curve" smooth="yes"/>
      <point x="489" y="-10"/>
      <point x="536" y="8"/>
      <point x="572" y="40" type="curve"/>
      <point x="542" y="74" type="line"/>
      <point x="517" y="50"/>
      <point x="480" y="34"/>
      <point x="448" y="34" type="curve" smooth="yes"/>
      <point x="380" y="34"/>
      <point x="332" y="113"/>
      <point x="330" y="231" type="curve"/>
      <point x="578" y="231" type="line"/>
      <point x="578" y="250" type="line" smooth="yes"/>
      <point x="578" y="400"/>
      <point x="525" y="489"/>
      <point x="435" y="489" type="curve" smooth="yes"/>
      <point x="379" y="489"/>
      <point x="332" y="447"/>
      <point x="306" y="378" type="curve"/>
      <point x="279" y="446"/>
      <point x="232" y="489"/>
      <point x="175" y="489" type="curve" smooth="yes"/>
      <point x="87" y="489"/>
      <point x="22" y="384"/>
      <point x="22" y="239" type="curve" smooth="yes"/>
      <point x="22" y="95"/>
      <point x="87" y="-10"/>
    </contour>
    <contour>
      <point x="436" y="445" type="curve" smooth="yes"/>
      <point x="493" y="445"/>
      <point x="526" y="383"/>
      <point x="531" y="272" type="curve"/>
      <point x="331" y="272" type="line"/>
      <point x="339" y="374"/>
      <point x="381" y="445"/>
    </contour>
    <contour>
      <point x="176" y="34" type="curve" smooth="yes"/>
      <point x="115" y="34"/>
      <point x="70" y="121"/>
      <point x="70" y="239" type="curve" smooth="yes"/>
      <point x="70" y="358"/>
      <point x="115" y="445"/>
      <point x="176" y="445" type="curve" smooth="yes"/>
      <point x="237" y="445"/>
      <point x="282" y="357"/>
      <point x="282" y="239" type="curve" smooth="yes"/>
      <point x="282" y="122"/>
      <point x="237" y="34"/>
    </contour>
  </outline>
</glyph>
<glyph name="scedilla" format="2">
  <advance width="600"/>
  <unicode hex="015F"/>
  <outline>
    <contour>
      <point x="290" y="-235" type="curve" smooth="yes"/>
      <point x="353" y="-235"/>
      <point x="396" y="-198"/>
      <point x="396" y="-147" type="curve" smooth="yes"/>
      <point x="396" y="-100"/>
      <point x="358" y="-70"/>
      <point x="300" y="-68" type="curve"/>
      <point x="313" y="-10" type="line"/>
      <point x="418" y="-5"/>
      <point x="495" y="51"/>
      <point x="495" y="138" type="curve" smooth="yes"/>
      <point x="495" y="332"/>
      <point x="150" y="206"/>
      <point x="150" y="352" type="curve" smooth="yes"/>
      <point x="150" y="407"/>
      <point x="202" y="443"/>
      <point x="289" y="443" type="curve" smooth="yes"/>
      <point x="350" y="443"/>
      <point x="404" y="426"/>
      <point x="455" y="391" type="curve"/>
      <point x="481" y="430" type="line"/>
      <point x="421" y="472"/>
      <point x="363" y="489"/>
      <point x="291" y="489" type="curve" smooth="yes"/>
      <point x="180" y="489"/>
      <point x="102" y="437"/>
      <point x="102" y="349" type="curve" smooth="yes"/>
      <point x="102" y="155"/>
      <point x="447" y="279"/>
      <point x="447" y="135" type="curve" smooth="yes"/>
      <point x="447" y="73"/>
      <point x="383" y="36"/>
      <point x="296" y="36" type="curve" smooth="yes"/>
      <point x="232" y="36"/>
      <point x="177" y="56"/>
      <point x="123" y="99" type="curve"/>
      <point x="93" y="63" type="line"/>
      <point x="135" y="18"/>
      <point x="199" y="-6"/>
      <point x="279" y="-10" type="curve"/>
      <point x="257" y="-96" type="line"/>
      <point x="282" y="-96" type="line" smooth="yes"/>
      <point x="330" y="-96"/>
      <point x="358" y="-115"/>
      <point x="358" y="-149" type="curve" smooth="yes"/>
      <point x="358" y="-183"/>
      <point x="332" y="-204"/>
      <point x="289" y="-204" type="curve" smooth="yes"/>
      <point x="259" y="-204"/>
      <point x="232" y="-194"/>
      <point x="209" y="-175" type="curve"/>
      <point x="187" y="-201" type="line"/>
      <point x="213" y="-224"/>
      <point x="249" y="-235"/>
    </contour>
  </outline>
</glyph>
<glyph name="tcaron" format="2">
  <advance width="600"/>
  <unicode hex="0165"/>
  <outline>
    <contour>
      <point x="363" y="549" type="line"/>
      <point x="399" y="549" type="line"/>
      <point x="418" y="737" type="line"/>
      <point x="366" y="725" type="line"/>
    </contour>
    <component base="t"/>
  </outline>
</glyph>
<glyph name="uogonek" format="2">
  <advance width="600"/>
  <unicode hex="0173"/>
  <outline>
    <contour>
      <point x="287" y="-8" type="curve" smooth="yes"/>
      <point x="352" y="-8"/>
      <point x="404" y="21"/>
      <point x="441" y="76" type="curve"/>
      <point x="441" y="0" type="line"/>
      <point x="442" y="0" type="line"/>
      <point x="367" y="-55"/>
      <point x="341" y="-96"/>
      <point x="341" y="-142" type="curve" smooth="yes"/>
      <point x="341" y="-193"/>
      <point x="379" y="-231"/>
      <point x="447" y="-231" type="curve" smooth="yes"/>
      <point x="473" y="-231"/>
      <point x="497" y="-224"/>
      <point x="514" y="-213" type="curve"/>
      <point x="502" y="-182" type="line"/>
      <point x="489" y="-190"/>
      <point x="470" y="-195"/>
      <point x="453" y="-195" type="curve" smooth="yes"/>
      <point x="410" y="-195"/>
      <point x="381" y="-174"/>
      <point x="381" y="-134" type="curve" smooth="yes"/>
      <point x="381" y="-97"/>
      <point x="407" y="-56"/>
      <point x="491" y="0" type="curve"/>
      <point x="491" y="481" type="line"/>
      <point x="441" y="481" type="line"/>
      <point x="441" y="118" type="line"/>
      <point x="411" y="67"/>
      <point x="361" y="36"/>
      <point x="301" y="36" type="curve" smooth="yes"/>
      <point x="214" y="36"/>
      <point x="158" y="95"/>
      <point x="158" y="187" type="curve" smooth="yes"/>
      <point x="158" y="481" type="line"/>
      <point x="108" y="481" type="line"/>
      <point x="108" y="173" type="line" smooth="yes"/>
      <point x="108" y="66"/>
      <point x="180" y="-8"/>
    </contour>
  </outline>
</glyph>
<glyph name="dotlessj" format="2">
  <advance width="600"/>
  <unicode hex="0237"/>
  <anchor x="384" y="481" name="top"/>
  <outline>
    <contour>
      <point x="237" y="-219" type="curve" smooth="yes"/>
      <point x="349" y="-219"/>
      <point x="408" y="-170"/>
      <point x="408" y="-76" type="curve" smooth="yes"/>
      <point x="408" y="481" type="line"/>
      <point x="103" y="481" type="line"/>
      <point x="103" y="438" type="line"/>
      <point x="358" y="438" type="line"/>
      <point x="358" y="-65" type="line" smooth="yes"/>
      <point x="358" y="-141"/>
      <point x="318" y="-173"/>
      <point x="253" y="-173" type="curve" smooth="yes"/>
      <point x="195" y="-173"/>
      <point x="158" y="-165"/>
      <point x="103" y="-141" type="curve"/>
      <point x="103" y="-191" type="line"/>
      <point x="150" y="-208"/>
      <point x="193" y="-219"/>
    </contour>
  </outline>
</glyph>
<glyph name="circumflex" format="2">
  <advance width="600"/>
  <unicode hex="02C6"/>
  <outline>
    <contour>
      <point x="161" y="574" type="line"/>
      <point x="203" y="574" type="line"/>
      <point x="299" y="662" type="line"/>
      <point x="397" y="574" type="line"/>
      <point x="439" y="574" type="line"/>
      <point x="329" y="695" type="line"/>
      <point x="271" y="695" type="line"/>
    </contour>
  </outline>
</glyph>
<glyph name="dotaccent" format="2">
  <advance width="600"/>
  <unicode hex="02D9"/>
  <outline>
    <contour>
      <point x="300" y="604" type="curve" smooth="yes"/>
      <point x="329" y="604"/>
      <point x="353" y="628"/>
      <point x="353" y="658" type="curve" smooth="yes"/>
      <point x="353" y="688"/>
      <point x="329" y="712"/>
      <point x="300" y="712" type="curve" smooth="yes"/>
      <point x="271" y="712"/>
      <point x="247" y="688"/>
      <point x="247" y="658" type="curve" smooth="yes"/>
      <point x="247" y="628"/>
      <point x="271" y="604"/>
    </contour>
  </outline>
</glyph>
<glyph name="uni0328" format="2">
  <unicode hex="0328"/>
  <anchor x="349" y="0" name="_bottom"/>
  <outline>
    <contour>
      <point x="305" y="-231" type="curve" smooth="yes"/>
      <point x="331" y="-231"/>
      <point x="355" y="-224"/>
      <point x="372" y="-213" type="curve"/>
      <point x="360" y="-182" type="line"/>
      <point x="347" y="-190"/>
      <point x="328" y="-195"/>
      <point x="311" y="-195" type="curve" smooth="yes"/>
      <point x="268" y="-195"/>
      <point x="239" y="-174"/>
      <point x="239" y="-134" type="curve" smooth="yes"/>
      <point x="239" y="-97"/>
      <point x="265" y="-56"/>
      <point x="349" y="0" type="curve"/>
      <point x="321" y="15" type="line"/>
      <point x="230" y="-48"/>
      <point x="199" y="-92"/>
      <point x="199" y="-142" type="curve" smooth="yes"/>
      <point x="199" y="-193"/>
      <point x="237" y="-231"/>
    </contour>
  </outline>
</glyph>
<glyph name="uni2015" format="2">
  <advance width="600"/>
  <unicode hex="2015"/>
  <outline>
    <contour>
      <point x="0" y="258" type="line"/>
      <point x="600" y="258" type="line"/>
      <point x="600" y="302" type="line"/>
      <point x="0" y="302" type="line"/>
    </contour>
  </outline>
</glyph>
<glyph name="dagger" format="2">
  <advance width="600"/>
  <unicode hex="2020"/>
  <guideline x="223" y="470" angle="0.0" identifier="vHBXdbe4Qi"/>
  <outline>
    <contour>
      <point x="276" y="0" type="line"/>
      <point x="325" y="0" type="line"/>
      <point x="325" y="452" type="line"/>
      <point x="461" y="452" type="line"/>
      <point x="461" y="496" type="line"/>
      <point x="325" y="496" type="line"/>
      <point x="325" y="700" type="line"/>
      <point x="276" y="700" type="line"/>
      <point x="276" y="496" type="line"/>
      <point x="140" y="496" type="line"/>
      <point x="140" y="452" type="line"/>
      <point x="276" y="452" type="line"/>
    </contour>
  </outline>
</glyph>
<glyph name="daggerdbl" format="2">
  <advance width="600"/>
  <unicode hex="2021"/>
  <guideline x="273" y="231" angle="0.0" identifier="5QWzWY8Oik"/>
  <outline>
    <contour>
      <point x="140" y="204" type="line"/>
      <point x="276" y="204" type="line"/>
      <point x="276" y="0" type="line"/>
      <point x="325" y="0" type="line"/>
      <point x="325" y="204" type="line"/>
      <point x="461" y="204" type="line"/>
      <point x="461" y="248" type="line"/>
      <point x="325" y="248" type="line"/>
      <point x="325" y="452" type="line"/>
      <point x="461" y="452" type="line"/>
      <point x="461" y="496" type="line"/>
      <point x="325" y="496" type="line"/>
      <point x="325" y="700" type="line"/>
      <point x="276" y="700" type="line"/>
      <point x="276" y="496" type="line"/>
      <point x="140" y="496" type="line"/>
      <point x="140" y="452" type="line"/>
      <point x="276" y="452" type="line"/>
      <point x="276" y="248" type="line"/>
      <point x="140" y="248" type="line"/>
    </contour>
  </outline>
</glyph>
<glyph name="guilsinglleft" format="2">
  <advance width="600"/>
  <unicode hex="2039"/>
  <outline>
    <contour>
      <point x="371" y="0" type="line"/>
      <point x="430" y="0" type="line"/>
      <point x="212" y="243" type="line"/>
      <point x="430" y="481" type="line"/>
      <point x="374" y="481" type="line"/>
      <point x="150" y="241" type="line"/>
    </contour>
  </outline>
</glyph>
<glyph name="fraction" format="2">
  <advance width="600"/>
  <unicode hex="2044"/>
  <outline>
    <contour>
      <point x="66" y="0" type="line"/>
      <point x="111" y="0" type="line"/>
      <point x="506" y="700" type="line"/>
      <point x="461" y="700" type="line"/>
    </contour>
  </outline>
</glyph>
<glyph name="uni2081" format="2">
  <advance width="600"/>
  <unicode hex="2081"/>
  <outline>
    <contour>
      <point x="272" y="0" type="line"/>
      <point x="312" y="0" type="line"/>
      <point x="312" y="350" type="line"/>
      <point x="287" y="350" type="line"/>
      <point x="204" y="318" type="line"/>
      <point x="204" y="282" type="line"/>
      <point x="272" y="307" type="line"/>
    </contour>
  </outline>
</glyph>
<glyph name="uni2082" format="2">
  <advance width="600"/>
  <unicode hex="2082"/>
  <outline>
    <contour>
      <point x="174" y="0" type="line"/>
      <point x="411" y="0" type="line"/>
      <point x="411" y="35" type="line"/>
      <point x="229" y="35" type="line"/>
      <point x="338" y="139" type="line" smooth="yes"/>
      <point x="392" y="191"/>
      <point x="406" y="215"/>
      <point x="406" y="255" type="curve" smooth="yes"/>
      <point x="406" y="313"/>
      <point x="357" y="355"/>
      <point x="289" y="355" type="curve" smooth="yes"/>
      <point x="247" y="355"/>
      <point x="208" y="339"/>
      <point x="168" y="305" type="curve"/>
      <point x="191" y="275" type="line"/>
      <point x="228" y="307"/>
      <point x="254" y="320"/>
      <point x="288" y="320" type="curve" smooth="yes"/>
      <point x="333" y="320"/>
      <point x="366" y="292"/>
      <point x="366" y="252" type="curve" smooth="yes"/>
      <point x="366" y="220"/>
      <point x="353" y="198"/>
      <point x="311" y="158" type="curve" smooth="yes"/>
      <point x="174" y="30" type="line"/>
    </contour>
  </outline>
</glyph>
<glyph name="uni2083" format="2">
  <advance width="600"/>
  <unicode hex="2083"/>
  <outline>
    <contour>
      <point x="292" y="-5" type="curve" smooth="yes"/>
      <point x="368" y="-5"/>
      <point x="421" y="37"/>
      <point x="421" y="96" type="curve" smooth="yes"/>
      <point x="421" y="138"/>
      <point x="386" y="170"/>
      <point x="335" y="179" type="curve"/>
      <point x="380" y="193"/>
      <point x="408" y="224"/>
      <point x="408" y="260" type="curve" smooth="yes"/>
      <point x="408" y="315"/>
      <point x="358" y="355"/>
      <point x="291" y="355" type="curve" smooth="yes"/>
      <point x="247" y="355"/>
      <point x="206" y="340"/>
      <point x="169" y="310" type="curve"/>
      <point x="192" y="280" type="line"/>
      <point x="228" y="308"/>
      <point x="257" y="320"/>
      <point x="290" y="320" type="curve" smooth="yes"/>
      <point x="335" y="320"/>
      <point x="368" y="293"/>
      <point x="368" y="258" type="curve" smooth="yes"/>
      <point x="368" y="219"/>
      <point x="334" y="191"/>
      <point x="286" y="191" type="curve" smooth="yes"/>
      <point x="259" y="191" type="line"/>
      <point x="259" y="160" type="line"/>
      <point x="289" y="160" type="line" smooth="yes"/>
      <point x="345" y="160"/>
      <point x="381" y="135"/>
      <point x="381" y="96" type="curve" smooth="yes"/>
      <point x="381" y="57"/>
      <point x="344" y="30"/>
      <point x="292" y="30" type="curve" smooth="yes"/>
      <point x="257" y="30"/>
      <point x="223" y="42"/>
      <point x="186" y="69" type="curve"/>
      <point x="164" y="38" type="line"/>
      <point x="202" y="9"/>
      <point x="244" y="-5"/>
    </contour>
  </outline>
</glyph>
<glyph name="uni2085" format="2">
  <advance width="600"/>
  <unicode hex="2085"/>
  <outline>
    <contour>
      <point x="298" y="-5" type="curve" smooth="yes"/>
      <point x="376" y="-5"/>
      <point x="429" y="40"/>
      <point x="429" y="109" type="curve" smooth="yes"/>
      <point x="429" y="171"/>
      <point x="378" y="215"/>
      <point x="300" y="215" type="curve" smooth="yes"/>
      <point x="275" y="215"/>
      <point x="253" y="211"/>
      <point x="232" y="203" type="curve"/>
      <point x="237" y="315" type="line"/>
      <point x="410" y="315" type="line"/>
      <point x="410" y="350" type="line"/>
      <point x="201" y="350" type="line"/>
      <point x="193" y="177" type="line"/>
      <point x="217" y="170" type="line"/>
      <point x="246" y="179"/>
      <point x="271" y="184"/>
      <point x="299" y="184" type="curve" smooth="yes"/>
      <point x="355" y="184"/>
      <point x="389" y="153"/>
      <point x="389" y="108" type="curve" smooth="yes"/>
      <point x="389" y="62"/>
      <point x="352" y="30"/>
      <point x="297" y="30" type="curve" smooth="yes"/>
      <point x="264" y="30"/>
      <point x="233" y="40"/>
      <point x="195" y="64" type="curve"/>
      <point x="175" y="32" type="line"/>
      <point x="215" y="6"/>
      <point x="251" y="-5"/>
    </contour>
  </outline>
</glyph>
<glyph name="uni2087" format="2">
  <advance width="600"/>
  <unicode hex="2087"/>
  <outline>
    <contour>
      <point x="208" y="0" type="line"/>
      <point x="252" y="0" type="line"/>
      <point x="432" y="319" type="line"/>
      <point x="432" y="350" type="line"/>
      <point x="167" y="350" type="line"/>
      <point x="167" y="315" type="line"/>
      <point x="386" y="315" type="line"/>
    </contour>
  </outline>
</glyph>
<glyph name="uni2088" format="2">
  <advance width="600"/>
  <unicode hex="2088"/>
  <outline>
    <contour>
      <point x="301" y="-5" type="curve" smooth="yes"/>
      <point x="377" y="-5"/>
      <point x="433" y="37"/>
      <point x="433" y="94" type="curve" smooth="yes"/>
      <point x="433" y="136"/>
      <point x="402" y="170"/>
      <point x="355" y="182" type="curve"/>
      <point x="394" y="196"/>
      <point x="419" y="226"/>
      <point x="419" y="263" type="curve" smooth="yes"/>
      <point x="419" y="317"/>
      <point x="367" y="355"/>
      <point x="301" y="355" type="curve" smooth="yes"/>
      <point x="235" y="355"/>
      <point x="183" y="317"/>
      <point x="183" y="263" type="curve" smooth="yes"/>
      <point x="183" y="226"/>
      <point x="208" y="196"/>
      <point x="247" y="182" type="curve"/>
      <point x="200" y="170"/>
      <point x="169" y="136"/>
      <point x="169" y="94" type="curve" smooth="yes"/>
      <point x="169" y="37"/>
      <point x="225" y="-5"/>
    </contour>
    <contour>
      <point x="301" y="199" type="curve" smooth="yes"/>
      <point x="255" y="199"/>
      <point x="222" y="227"/>
      <point x="222" y="261" type="curve" smooth="yes"/>
      <point x="222" y="297"/>
      <point x="256" y="322"/>
      <point x="301" y="322" type="curve" smooth="yes"/>
      <point x="346" y="322"/>
      <point x="380" y="297"/>
      <point x="380" y="261" type="curve" smooth="yes"/>
      <point x="380" y="227"/>
      <point x="347" y="199"/>
    </contour>
    <contour>
      <point x="301" y="28" type="curve" smooth="yes"/>
      <point x="249" y="28"/>
      <point x="209" y="58"/>
      <point x="209" y="96" type="curve" smooth="yes"/>
      <point x="209" y="137"/>
      <point x="248" y="166"/>
      <point x="301" y="166" type="curve" smooth="yes"/>
      <point x="354" y="166"/>
      <point x="393" y="137"/>
      <point x="393" y="96" type="curve" smooth="yes"/>
      <point x="393" y="58"/>
      <point x="353" y="28"/>
    </contour>
  </outline>
</glyph>
<glyph name="minus" format="2">
  <advance width="600"/>
  <unicode hex="2212"/>
  <outline>
    <contour>
      <point x="110" y="335" type="line"/>
      <point x="490" y="335" type="line"/>
      <point x="490" y="380" type="line"/>
      <point x="110" y="380" type="line"/>
    </contour>
  </outline>
</glyph>
<glyph name="notequal" format="2">
  <advance width="600"/>
  <unicode hex="2260"/>
  <outline>
    <contour>
      <point x="119" y="134" type="line"/>
      <point x="161" y="134" type="line"/>
      <point x="250" y="259" type="line"/>
      <point x="490" y="259" type="line"/>
      <point x="490" y="304" type="line"/>
      <point x="283" y="304" type="line"/>
      <point x="359" y="411" type="line"/>
      <point x="490" y="411" type="line"/>
      <point x="490" y="456" type="line"/>
      <point x="392" y="456" type="line"/>
      <point x="481" y="581" type="line"/>
      <point x="439" y="581" type="line"/>
      <point x="350" y="456" type="line"/>
      <point x="110" y="456" type="line"/>
      <point x="110" y="411" type="line"/>
      <point x="317" y="411" type="line"/>
      <point x="241" y="304" type="line"/>
      <point x="110" y="304" type="line"/>
      <point x="110" y="259" type="line"/>
      <point x="208" y="259" type="line"/>
    </contour>
  </outline>
</glyph>
<glyph name="fl" format="2">
  <advance width="600"/>
  <unicode hex="FB02"/>
  <outline>
    <contour>
      <point x="142" y="0" type="line"/>
      <point x="192" y="0" type="line"/>
      <point x="192" y="438" type="line"/>
      <point x="341" y="438" type="line"/>
      <point x="341" y="481" type="line"/>
      <point x="192" y="481" type="line"/>
      <point x="192" y="597" type="line" smooth="yes"/>
      <point x="192" y="663"/>
      <point x="218" y="691"/>
      <point x="275" y="691" type="curve" smooth="yes"/>
      <point x="296" y="691"/>
      <point x="311" y="688"/>
      <point x="334" y="680" type="curve"/>
      <point x="334" y="728" type="line"/>
      <point x="315" y="735"/>
      <point x="297" y="737"/>
      <point x="273" y="737" type="curve" smooth="yes"/>
      <point x="188" y="737"/>
      <point x="142" y="686"/>
      <point x="142" y="598" type="curve" smooth="yes"/>
      <point x="142" y="481" type="line"/>
      <point x="27" y="481" type="line"/>
      <point x="27" y="438" type="line"/>
      <point x="142" y="438" type="line"/>
    </contour>
    <contour>
      <point x="450" y="0" type="line"/>
      <point x="500" y="0" type="line"/>
      <point x="500" y="737" type="line"/>
      <point x="450" y="725" type="line"/>
    </contour>
  </outline>
</glyph>
<glyph name="aogonek.school" format="2">
  <advance width="600"/>
  <outline>
    <contour>
      <point x="290" y="-8" type="curve" smooth="yes"/>
      <point x="354" y="-8"/>
      <point x="411" y="16"/>
      <point x="451" y="64" type="curve"/>
      <point x="451" y="0" type="line"/>
      <point x="452" y="0" type="line"/>
      <point x="377" y="-55"/>
      <point x="351" y="-96"/>
      <point x="351" y="-142" type="curve" smooth="yes"/>
      <point x="351" y="-193"/>
      <point x="389" y="-231"/>
      <point x="457" y="-231" type="curve" smooth="yes"/>
      <point x="483" y="-231"/>
      <point x="507" y="-224"/>
      <point x="524" y="-213" type="curve"/>
      <point x="512" y="-182" type="line"/>
      <point x="499" y="-190"/>
      <point x="480" y="-195"/>
      <point x="463" y="-195" type="curve" smooth="yes"/>
      <point x="420" y="-195"/>
      <point x="391" y="-174"/>
      <point x="391" y="-134" type="curve" smooth="yes"/>
      <point x="391" y="-97"/>
      <point x="417" y="-56"/>
      <point x="501" y="0" type="curve"/>
      <point x="501" y="481" type="line"/>
      <point x="451" y="481" type="line"/>
      <point x="451" y="412" type="line"/>
      <point x="411" y="461"/>
      <point x="355" y="487"/>
      <point x="288" y="487" type="curve" smooth="yes"/>
      <point x="159" y="487"/>
      <point x="60" y="379"/>
      <point x="60" y="240" type="curve" smooth="yes"/>
      <point x="60" y="100"/>
      <point x="160" y="-8"/>
    </contour>
    <contour>
      <point x="298" y="38" type="curve" smooth="yes"/>
      <point x="192" y="38"/>
      <point x="110" y="124"/>
      <point x="110" y="239" type="curve" smooth="yes"/>
      <point x="110" y="354"/>
      <point x="192" y="441"/>
      <point x="298" y="441" type="curve" smooth="yes"/>
      <point x="363" y="441"/>
      <point x="419" y="412"/>
      <point x="451" y="363" type="curve"/>
      <point x="451" y="112" type="line"/>
      <point x="418" y="65"/>
      <point x="360" y="38"/>
    </contour>
  </outline>
</glyph>
<glyph name="caronSlovak" format="2">
  <advance width="600"/>
  <outline>
    <contour>
      <point x="255" y="549" type="line"/>
      <point x="291" y="549" type="line"/>
      <point x="310" y="737" type="line"/>
      <point x="258" y="725" type="line"/>
    </contour>
  </outline>
</glyph>
<glyph name="commaaccent" format="2">
  <advance width="600"/>
  <anchor x="300" y="0" name="_bottom"/>
  <outline>
    <contour>
      <point x="232" y="-266" type="line"/>
      <point x="269" y="-266" type="line"/>
      <point x="331" y="-86" type="line"/>
      <point x="277" y="-86" type="line"/>
    </contour>
  </outline>
</glyph>
<glyph name="cordinal" format="2">
  <advance width="600"/>
  <guideline x="480" y="579" angle="90.0" identifier="cmQmWnnujo"/>
  <outline>
    <contour>
      <point x="337" y="323" type="curve" smooth="yes"/>
      <point x="391" y="323"/>
      <point x="443" y="344"/>
      <point x="481" y="380" type="curve"/>
      <point x="453" y="413" type="line"/>
      <point x="424" y="383"/>
      <point x="380" y="364"/>
      <point x="338" y="364" type="curve" smooth="yes"/>
      <point x="257" y="364"/>
      <point x="194" y="431"/>
      <point x="194" y="517" type="curve" smooth="yes"/>
      <point x="194" y="603"/>
      <point x="257" y="670"/>
      <point x="338" y="670" type="curve" smooth="yes"/>
      <point x="380" y="670"/>
      <point x="423" y="652"/>
      <point x="453" y="621" type="curve"/>
      <point x="481" y="654" type="line"/>
      <point x="443" y="690"/>
      <point x="391" y="711"/>
      <point x="337" y="711" type="curve" smooth="yes"/>
      <point x="232" y="711"/>
      <point x="149" y="626"/>
      <point x="149" y="517" type="curve" smooth="yes"/>
      <point x="149" y="408"/>
      <point x="232" y="323"/>
    </contour>
  </outline>
</glyph>
<glyph name="g.alt" format="2">
  <advance width="600"/>
  <anchor x="295" y="481" name="top"/>
  <outline>
    <contour>
      <point x="286" y="-219" type="curve" smooth="yes"/>
      <point x="437" y="-219"/>
      <point x="531" y="-162"/>
      <point x="531" y="-74" type="curve" smooth="yes"/>
      <point x="531" y="-17"/>
      <point x="490" y="15"/>
      <point x="415" y="21" type="curve" smooth="yes"/>
      <point x="233" y="32" type="line" smooth="yes"/>
      <point x="193" y="34"/>
      <point x="172" y="48"/>
      <point x="172" y="75" type="curve" smooth="yes"/>
      <point x="172" y="106"/>
      <point x="198" y="130"/>
      <point x="237" y="140" type="curve"/>
      <point x="255" y="134"/>
      <point x="275" y="131"/>
      <point x="295" y="131" type="curve" smooth="yes"/>
      <point x="399" y="131"/>
      <point x="482" y="211"/>
      <point x="482" y="310" type="curve" smooth="yes"/>
      <point x="482" y="348"/>
      <point x="470" y="383"/>
      <point x="449" y="412" type="curve"/>
      <point x="456" y="444"/>
      <point x="479" y="464"/>
      <point x="511" y="464" type="curve" smooth="yes"/>
      <point x="531" y="464"/>
      <point x="543" y="463"/>
      <point x="554" y="460" type="curve"/>
      <point x="554" y="516" type="line"/>
      <point x="546" y="517"/>
      <point x="539" y="518"/>
      <point x="531" y="518" type="curve" smooth="yes"/>
      <point x="477" y="518"/>
      <point x="438" y="482"/>
      <point x="434" y="430" type="curve"/>
      <point x="400" y="466"/>
      <point x="351" y="489"/>
      <point x="295" y="489" type="curve" smooth="yes"/>
      <point x="191" y="489"/>
      <point x="108" y="409"/>
      <point x="108" y="310" type="curve" smooth="yes"/>
      <point x="108" y="242"/>
      <point x="147" y="184"/>
      <point x="204" y="153" type="curve"/>
      <point x="156" y="139"/>
      <point x="123" y="104"/>
      <point x="123" y="69" type="curve" smooth="yes"/>
      <point x="123" y="34"/>
      <point x="144" y="8"/>
      <point x="180" y="-6" type="curve"/>
      <point x="111" y="-31"/>
      <point x="78" y="-61"/>
      <point x="78" y="-98" type="curve" smooth="yes"/>
      <point x="78" y="-174"/>
      <point x="155" y="-219"/>
    </contour>
    <contour>
      <point x="295" y="175" type="curve" smooth="yes"/>
      <point x="218" y="175"/>
      <point x="158" y="234"/>
      <point x="158" y="310" type="curve" smooth="yes"/>
      <point x="158" y="386"/>
      <point x="218" y="445"/>
      <point x="295" y="445" type="curve" smooth="yes"/>
      <point x="372" y="445"/>
      <point x="432" y="386"/>
      <point x="432" y="310" type="curve" smooth="yes"/>
      <point x="432" y="234"/>
      <point x="372" y="175"/>
    </contour>
    <contour>
      <point x="278" y="-178" type="curve" smooth="yes"/>
      <point x="186" y="-178"/>
      <point x="128" y="-144"/>
      <point x="128" y="-92" type="curve" smooth="yes"/>
      <point x="128" y="-59"/>
      <point x="160" y="-31"/>
      <point x="216" y="-14" type="curve"/>
      <point x="221" y="-15"/>
      <point x="226" y="-16"/>
      <point x="232" y="-16" type="curve" smooth="yes"/>
      <point x="412" y="-27" type="line" smooth="yes"/>
      <point x="458" y="-29"/>
      <point x="481" y="-46"/>
      <point x="481" y="-79" type="curve" smooth="yes"/>
      <point x="481" y="-139"/>
      <point x="402" y="-178"/>
    </contour>
  </outline>
</glyph>
<glyph name="uni0302" format="2">
  <anchor x="300" y="481" name="_top"/>
  <outline>
    <contour>
      <point x="161" y="574" type="line"/>
      <point x="203" y="574" type="line"/>
      <point x="299" y="662" type="line"/>
      <point x="397" y="574" type="line"/>
      <point x="439" y="574" type="line"/>
      <point x="329" y="695" type="line"/>
      <point x="271" y="695" type="line"/>
    </contour>
  </outline>
</glyph>
<glyph name="uni0307" format="2">
  <anchor x="300" y="481" name="_top"/>
  <outline>
    <contour>
      <point x="300" y="604" type="curve" smooth="yes"/>
      <point x="329" y="604"/>
      <point x="353" y="628"/>
      <point x="353" y="658" type="curve" smooth="yes"/>
      <point x="353" y="688"/>
      <point x="329" y="712"/>
      <point x="300" y="712" type="curve" smooth="yes"/>
      <point x="271" y="712"/>
      <point x="247" y="688"/>
      <point x="247" y="658" type="curve" smooth="yes"/>
      <point x="247" y="628"/>
      <point x="271" y="604"/>
    </contour>
  </outline>
</glyph>
<glyph name="uni030B" format="2">
  <anchor x="300" y="481" name="_top"/>
  <outline>
    <contour>
      <point x="180" y="577" type="line"/>
      <point x="236" y="577" type="line"/>
      <point x="376" y="695" type="line"/>
      <point x="308" y="695" type="line"/>
    </contour>
    <contour>
      <point x="339" y="577" type="line"/>
      <point x="395" y="577" type="line"/>
      <point x="535" y="695" type="line"/>
      <point x="467" y="695" type="line"/>
    </contour>
  </outline>
</glyph>
<glyph name="uni030C" format="2">
  <anchor x="300" y="481" name="_top"/>
  <outline>
    <contour>
      <point x="271" y="577" type="line"/>
      <point x="329" y="577" type="line"/>
      <point x="439" y="698" type="line"/>
      <point x="395" y="698" type="line"/>
      <point x="300" y="609" type="line"/>
      <point x="205" y="698" type="line"/>
      <point x="161" y="698" type="line"/>
    </contour>
  </outline>
</glyph>
<glyph name="uni0326" format="2">
  <anchor x="300" y="0" name="_bottom"/>
  <outline>
    <contour>
      <point x="232" y="-266" type="line"/>
      <point x="269" y="-266" type="line"/>
      <point x="331" y="-86" type="line"/>
      <point x="277" y="-86" type="line"/>
    </contour>
  </outline>
</glyph>
